<svg id="Ebene_1" xmlns="http://www.w3.org/2000/svg" width="538.2" height="156.8" viewBox="0 0 538.2 156.8"><style>.st0{fill:#004f9f}.st1{fill:#fc0}</style><path class="st0" d="M38.8 40.3H0V19h104.8v21.3H66v114.1H38.8V40.3zM222.1 45.2C211.6 40.3 198 38 187.2 38c-31.6 0-49.1 21.4-49.1 49.1 0 27.6 17.1 48.3 46 48.3 7.4 0 13.2-.8 17.9-1.9V98.2h-28.7V76.8H228v73c-14.4 3.9-29.3 7-43.9 7-43.9 0-74.3-21.9-74.3-67.7 0-46.4 28.3-72.4 74.3-72.4 15.7 0 28.1 2.1 39.8 5.6l-1.8 22.9zM283.8 90.4l-11.4 2.3c-1.4.9-2.8 1.6-4.5 1.7-3.1.2-7.1-1.4-5.9-9.2.5-3.8 4-8.7 7.6-8.9 1.9-.1 3.4.4 4.6.7l11.8-2.6c5.2-36 14.1-54.3 39.5-55.9 12-.8 26.2 8.3 25.2 15.2-.7 4-4.4 9.9-10.6 10.3-5.3.3-8.1-2.9-7.6-5.9-1.1-2.3-5.3-4.1-10.3-3.8-6.9.4-11 8.5-15.3 35.8l25.1-5.2c1.6-.7 3.2-2.4 5.6-2.6 5.5-.3 8.4 3.3 7.7 7.7-.8 5.9-4.1 10.5-8.4 10.7-1.9.1-3.9-.4-4.6-.7l-27.5 5.7-8.2 56c.8 1.7 1.4 3.7 1.1 5.5-.6 5.2-6 8-12.9 8.4-8.4.5-11.6-1.9-10.8-7.5.2-1.2 1-2.7 1.9-3.9l7.9-53.8zM378 77.2l-8.4 57.8c1 .7 2.4 3.1 2 5.5-1 6.9-10.6 10.5-17.6 10.9-5.7.4-9.6-3-8.5-8.9.5-3.6 2.5-6 3.6-7l8.2-56.2c-1.3-1.1-1.6-3.3-1.3-5.1.8-5.7 2.1-11.7 15.8-12.6 5-.3 10.1 4.6 9.4 8.8-.3 3.4-2.4 5.5-3.2 6.8zm9.3-45.6c-1.6 11.9-9.1 19.2-16.1 19.6-7.2.5-9.3-3.4-8.5-9.1 1.5-10.3 7.5-18.7 16.1-19.2 6.3-.4 9.4 2.8 8.5 8.7zM419.4 44.6c-.5-1-1.1-1.7-.6-5 .9-5.5 7-7.4 15.1-8 4.5-.3 9.9.2 9.2 5.4-.4 1.6-1.2 3.5-3 5.2l-1.6 12.3 28.2-5.8c1.4-1.1 2.8-1.8 4.4-1.9 5.3-.3 7.7 3.5 7 7.6-1 6.5-4.4 9.9-9 10.2-1.4.1-3.1 0-3.4-.6l-29.6 6.1-8.1 54.6c-.5 3.2.4 5.6 3 5.4 4.5-.3 22.9-10.3 33.5-21.1.7-4.4 4.3-8.1 9.6-8.4 8.9-.6 10.8 3.3 9.9 9-1.2 7.9-43 37.9-62.6 39.2-11 .7-16.5-6.2-14.9-15.9l8.6-58.4-14.7 2.9c-1.4 1.1-2.5 1.8-4.7 2.1-5.3.1-8.3-2.9-7.5-8.9.6-5 5.4-9 10.2-9.3 1.4-.1 2.9.4 3.4 1l15.7-3.2 1.9-14.5zM494.6 133.5c1.2-7.7 9.1-16.2 17.2-16.7 6.2-.4 8.6 2.9 7.2 11.6-1.1 8.5-4.9 13.5-16.9 14.3-4.7.2-8.1-4.4-7.5-9.2zM524 89c1.5 1.3 1.5 4.5 1 8.3-.7 4.6-9.5 9.6-17.4 10.1-7.2.5-9-5.6-8.3-9.5.3-3 2-5.9 3.6-7.4l9.9-68.1c-1.3-1.9-2.4-4.1-1.9-7.3 1-6.7 4.9-10.1 18.5-11 6.9-.4 9.5 1.6 8.7 8.3-.7 4-2.7 6.4-4.1 7.9L524 89z"/><path class="st1" d="M279.6 86.2l-11.4 2.3c-1.4.9-2.8 1.6-4.5 1.7-3.1.2-7.1-1.4-5.9-9.2.5-3.8 4-8.7 7.6-8.9 1.9-.1 3.4.4 4.6.7l11.8-2.6c5.2-36 14.1-54.3 39.5-55.9 12-.8 26.2 8.3 25.2 15.2-.7 4-4.4 9.9-10.6 10.3-5.3.3-8.1-2.9-7.6-5.9-1.1-2.3-5.3-4.1-10.3-3.8-6.9.4-11 8.5-15.3 35.8l25.1-5.2c1.6-.7 3.2-2.4 5.6-2.6 5.5-.3 8.4 3.3 7.7 7.7-.8 5.9-4.1 10.5-8.4 10.7-1.9.1-3.9-.4-4.6-.7l-27.5 5.7-8.2 56c.8 1.7 1.4 3.7 1.1 5.5-.6 5.2-6 8-12.9 8.4-8.4.5-11.6-1.9-10.8-7.5.2-1.2 1-2.7 1.9-3.9l7.9-53.8zM373.8 73.1l-8.4 57.8c1 .7 2.4 3.1 2 5.5-1 6.9-10.6 10.5-17.6 10.9-5.7.4-9.6-3-8.5-8.9.5-3.6 2.5-6 3.6-7l8.2-56.2c-1.3-1.1-1.6-3.3-1.3-5.1.8-5.7 2.1-11.7 15.8-12.6 5-.3 10.1 4.6 9.4 8.8-.3 3.4-2.3 5.5-3.2 6.8zm9.4-45.7c-1.6 11.9-9.1 19.2-16.1 19.6-7.2.5-9.3-3.4-8.5-9.1 1.5-10.3 7.5-18.7 16.1-19.2 6.2-.3 9.3 2.9 8.5 8.7zM415.2 40.4c-.5-1-1.1-1.7-.6-5 .9-5.5 7-7.4 15.1-8 4.5-.3 9.9.2 9.2 5.4-.4 1.6-1.2 3.5-3 5.2l-1.6 12.3 28.2-5.8c1.4-1.1 2.8-1.8 4.4-1.9 5.3-.3 7.7 3.5 7 7.6-1 6.5-4.4 9.9-9 10.2-1.4.1-3.1 0-3.4-.6l-29.6 6.1-8.1 54.6c-.5 3.2.4 5.6 3 5.4 4.5-.3 22.9-10.3 33.5-21.1.7-4.4 4.3-8.1 9.6-8.4 8.9-.6 10.8 3.3 9.9 9-1.2 7.9-43 37.9-62.6 39.2-11 .7-16.5-6.2-14.9-15.9l8.6-58.4-14.7 2.9c-1.4 1.1-2.5 1.8-4.7 2.1-5.3.1-8.3-2.9-7.5-8.9.6-5 5.4-9 10.2-9.3 1.4-.1 2.9.4 3.4 1l15.6-3.2 2-14.5z"/><g><path class="st1" d="M490.5 129.3c1.2-7.7 9.1-16.2 17.2-16.7 6.2-.4 8.6 2.9 7.2 11.6-1.1 8.5-4.9 13.5-16.9 14.3-4.7.3-8.1-4.3-7.5-9.2zm29.4-44.4c1.5 1.3 1.5 4.5 1 8.3-.7 4.6-9.5 9.6-17.4 10.1-7.2.5-9-5.6-8.3-9.5.3-3 2-5.9 3.6-7.4l9.9-68.1c-1.3-1.9-2.4-4.1-1.9-7.3 1-6.7 4.9-10.1 18.5-11 6.9-.4 9.5 1.6 8.7 8.3-.7 4-2.7 6.4-4.1 7.9l-10 68.7z"/></g></svg>