<svg id="Ebene_1" xmlns="http://www.w3.org/2000/svg" width="283.5" height="157" viewBox="0 0 283.5 157"><path d="M87.1 119.9c-.5.2-.9.6-1.2 1-.8-.3-1.7-.1-2.5-.1-.2 0-.1-.3-.2-.4 0-.2.1-.3.2-.5h3.7zm6.5 0c.2.2.5.4.7.6.2.1.4.2.7.1.2-.1.3-.4.4-.5.4-.2.9-.2 1.4-.2h10.4c-.2.3-.4.6-.6 1-.1.4-.3.9-.3 1.4 0 .7 0 1.6.4 2.1.2.5.8.7.5 1.3-.1.5-.1 1.1-.6 1.3-.7.3-1.8.5-2.6.1-1.3-.3-2.8-.7-4.3-.7-1-.1-1.9 0-2.9.2-.5.1-.9.3-1.4.4-.9.1-1.7.5-2.6.9-.2 0-.5-.1-.7-.3-.9-.6-1.9-.9-2.9-1.4-.1-.2-.1-.4 0-.5.2-.4.7-.5.9-.9-1-1-2.5-1.1-3.9-1-.8.1-1.5.6-2.2 1-.4.2-.7-.1-1-.1-.8-.2-1.9-.2-2.3-1-.1-.5.1-1 .6-1.4.9-.7 2-.8 3.1-.9 2.8-.1 5.4.9 7.7 2.2.2 0 .2-.2.4-.3-.2-.2-.5-.3-.7-.6 0-.2.2-.4.4-.4l.9-.3c-1.1-1-2.4-1.7-3.8-2l4.3-.1z" fill-rule="evenodd" clip-rule="evenodd" fill="#fc0"/><path d="M103.9 111.9l.2.2v.2c-.4.5-.8.9-.9 1.5-.2.4-.6.2-.9.1-.9-.5-1.7-1.2-2.3-2.1l3.9.1zm8.7 0c-.1.2-.2.4-.2.6-.5.7-.7 1.5-1.2 2.1 0 .2-.2.3-.3.5-.5.8-1.3 1.6-1.8 2.4-.2.2-.2.5-.5.7-.4.5-.9 1.1-1.3 1.7H96.9c.1 0 .2 0 .3-.1-.3-.7-1-1.2-1.6-1.8-.7-.6-1.6-.9-2.5-.9-.7 0-1.3.2-1.9.5-.5-.1-.8-.3-1.2-.5-.6-.1-1.1-.2-1.6-.4-.2-.2.1-.3.1-.4.4-.4.7-.9 1.3-1.1.8-.6 1.9-.6 2.9-.5 1.2.2 2.4.6 3.4 1.2.1.1.4.2.5.3.9.6 1.7 1.5 2.4 2.3.2.7 1.1.4 1.6.6.2-.5.6-.8 1.1-1 .1-.6.4-1.2.7-1.7.3-.6.5-1.3.9-1.8-.1-.1 0-.3.1-.4.3-.3.6-.2 1-.2.2.1.4.1.6.2.2-.7.6-1.3 1-1.9 0-.2-.1-.3-.2-.4h6.8zm22.4 0c.1.4 0 .8.1 1.1.1.4-.1.8.1 1.2 0 .6-.1 1.3 0 2v.1c-1.1.3-2.2.4-3.3 0-.2-.3.1-.9-.4-.9-.7-.2-1.4-.3-2-.6-.3-.1-.2-.5-.3-.7-.1-.7-.3-1.5-.5-2.2h6.3zm-51.6 8c.3-.7.8-1.3 1.4-1.7 1.6-1.1 3.9-.7 5.5-.1 1.2.3 2.2 1 3.3 1.8h-4.2c-.6-.1-1.3-.2-2-.1-.1 0-.2.1-.3.1h-3.7z" fill-rule="evenodd" clip-rule="evenodd" fill="#fc0"/><path d="M76.5 87.9c-.2.8-.2 1.6-.4 2.3 0 .5-.1 1-.1 1.5.1.2 0 .3 0 .5v.9c-.5 0-1-.1-1.5.2-.4-.4-.3-1.1-.3-1.6 0-1.2.1-2.5.3-3.7l2-.1zm15.3 0c-.1.3-.3.7-.4 1-.2.4-.3.9-.4 1.3-.1.6-.2 1.2-.3 1.9-.2 0 .1.2-.1.2-.6-.1-1.4-.1-1.7-.7-.1-.2-.3-.3-.5-.4-1.5-.3-3-.9-4-2.2-.8-.5-1.8-.5-2.7-.6-.1 0-.1.2-.1.3 0 .6.5 1.1 1 1.5.2.1.5.3.6.6 0 .5 0 1 .1 1.5-.4.3.1.6.2.8.3 1.1.6 2.3.3 3.4-.1.6-.3 1.2-.4 1.8-.4 1.7-.9 3.4-1.3 5.1 0 1.1-.2 2.3.4 3.2.2.4.6.8.7 1.3 0 .2.2.4.1.6-.2.3-.4.7-.5 1.1-.2.1-.3-.2-.5 0-1.5.7-3.1 0-4.7-.1-1.1-.1-2.2-.4-3.2-.3-1.5-.1-3.1.1-4.5.7-.4 0-.7.3-1 .4-.4.2-.9.4-1.4.2-.2-.4-.6-.5-.9-.7-.8-.3-1.5-.7-2.4-.8-.1-.1-.2-.3-.2-.5.5-.4 1-.5 1.5-.7-.1-.2-.4-.3-.6-.4-2-1-4.6-1.1-6.5.1-.4 0-.7-.2-1.1-.3-.2-.1-.5-.2-.6-.5-.1-.4-.1-.8.1-1.2.4-.5 1-.6 1.5-.9 1.2-.3 2.3-.3 3.6 0 .4.2.9.2 1.3.4 1 .4 1.9.8 2.8 1.4.4.1.7-.2 1.1-.2.1 0 .2-.1.4-.2-.1-.2-.4-.2-.5-.4.2-.4.7-.4 1.1-.6-1.1-1.5-3.1-2-4.9-2-.7.2-1.5.3-2.2.8-.7-.2-1.4 0-2.1-.2-.3-.3-.3-.8-.2-1.2.3-.8 1.2-1.2 1.9-1.6 3-.8 5.9.6 8.2 2.5.1 0 .2.1.3.2.2 0 .4.1.6 0 .1-.1.2-.3.2-.4-.1-.2-.4-.2-.5-.4.5-.5 1.2-.5 1.9-.6-1.5-1.4-3.6-2.6-5.6-1.8-.4.1-.7-.3-1.1-.3-.2-.1-.4-.1-.6-.2-.3-.2-.6 0-.9-.3.1-1 1.1-1.4 1.9-1.6 1.3-.3 2.7-.3 3.9.3.4.3.9.3 1.3.7.6.3 1.1.8 1.6 1.2.1.2.3.3.6.2h1.1c0-.2-.3-.3-.2-.5.5-.6 1.4-.7 1.6-1.6-.2-.7-.6-1.4-.8-2.1.7-.5 1.7-.2 2.5-.2.2-.2.1-.6.1-.7 0-.4-.1-.8-.2-1.2 0-1.6-.1-3.1.3-4.7 0-.5.2-.9.3-1.3l14.7-.1zm4.4 0c-.3.6-.5 1.3-.6 2-.6 2.3-.7 4.8-.8 7.1v.6c-.4.1-.9.1-1.2.1-.3.1-.7.2-.9.1-.5-1-.2-2.1-.3-3.2 0-2.1.3-4 .8-5.9 0-.2.1-.5.2-.7l2.8-.1zm14.1 0v.1c-.3.8-.4 1.6-.6 2.4 0 .4-.2.8-.2 1.3-.1.7-.2 1.4-.3 2.2.1.5-.2.9-.1 1.4-.1.2-.1.4-.1.6-.2 1.2-.2 2.5-.2 3.8 0 .6.2 1.2.2 1.8-.1.1.1.3.1.5.2.7.5 1.6.9 2.2.4.9 1.2 1.3 1.9 2 .1.1 0 .4.1.5 0 0 .2.2.1.4-.1 0-.1.1 0 .2.4.9 1 1.8.8 2.8 0 .7-.2 1.4-.4 2h-7.1c-.2-.2-.4-.3-.5-.5-.7-.8-1.3-1.8-1.8-2.7-1.1-2-1-4.4-1.3-6.7 0-.5 0-1.1.1-1.5 0-.2.1-.5 0-.6-.5-.1-1-.2-1.5-.1-.1.4-.1.7-.1 1.2-.1 1.9 0 3.8.6 5.5.2 1 .7 2 1.1 2.9.4.9 1 1.8 1.8 2.6H100c-1-1.2-1.6-2.7-2.1-4.1-.7-2-1.1-4.1-1.1-6.3 0-.5.2-.9.1-1.3-.2 0-.3.2-.5.1-.1.1-.3 0-.4.1-.6-.1-.3-.8-.4-1.3-.2-2.5-.1-5 .6-7.4.3-1.3.8-2.6 1.4-3.8l12.7-.3zm11.1 0c.4.4.8.7 1.2 1 1 .9 1.8 2 2.7 2.9.2.2.3.4.5.6 1.5 1.9 2.9 4 4.2 6.1.5.9 1.1 1.8 1.5 2.7 0 .1 0 .3.2.3.7 1.4 1.3 2.8 1.9 4.2.4 1.1.6 2.1.9 3.2.2.8.3 1.6.5 2.4.1.2.1.3.1.5h-6.3c-.9-3.5-2.4-6.7-4-9.9-1.5-2.4-2.5-5-4.7-7.1-.3-.2-.6-.4-.9-.3.1 1.4.7 2.6 1.1 3.9.2.5.4 1 .6 1.4.4 1.3 1.3 2.4 1.9 3.5.2.6 1.2 1.2.5 1.8-.4.4-.9.7-1.3 1-.3.1-.5-.2-.7-.4-.5-.6-.7-1.2-1-1.9-.6 0-1.2.4-1.7.7-.2.1-.3-.2-.4-.3-1.1-2.6-2-5.2-2.6-7.9 0-.1-.1-.1-.1-.2-.4-1.8-.6-3.7-.8-5.6-.1-.2-.4-.1-.6-.1h-.1c-.2-.9.2-1.7.6-2.5v-.1l6.8.1z" fill-rule="evenodd" clip-rule="evenodd" fill="#fc0"/><path d="M99.2 63.9c.1.2.2.4.3.7.1.4.4.7.5 1.1 1.1 1.8 2.2 3.6 3.7 5.2.4.7 1.2 1.1 1.6 1.8.5.4 1 .9 1.5 1.3.4.4.9.7 1.4 1.2.6.4 1.1.9 1.7 1.4.4.4.8.8 1.1 1.3 1.1.9 1 2.5.7 3.8-.4 1.7-.7 3.4-1.3 5 0 .1 0 .2-.1.3 0 .3-.2.7-.2 1H97.5c0-.1.1-.2.1-.3-.1-.3-.5-.3-.8-.5-.2 0-.6-.2-.6.1-.1.2-.1.4-.2.6h-2.8c.1-.4.2-.7.4-1.1.4-.9.7-1.8 1.5-2.4.4 0 .6.2 1 .4.2-.3.1-.6.2-1 .1-.5.4-1 .2-1.4-.4.1-.6.6-.9 1-.4 0-.9-.2-1.4-.2-.4-.1 0-.5 0-.8 0-.1.2-.2.1-.4-1.6-1.5-2.6-3.3-3.6-5-.5-1.1-1.1-2.1-1.5-3.1-.1-.2-.2.1-.5.1-.5-.1-.7-.7-1.1-1.1-.7-1-1.2-2-1.8-3.1-.8-1.7-1.5-3.5-2.1-5.3.1-.1-.1-.2-.1-.3 0-.1-.1-.2-.1-.3h15.7zm-24.8 24c.1-.7.3-1.3.5-2-.2-.1-.3-.3-.4-.5.1-.6 1-.9 1.2-1.4-.4-.8-.4-1.8-.6-2.6.1-.1 0-.3 0-.5 0-.6.2-1.1.2-1.6.1-.1.1-.3.3-.4.1-.5.4-.7.6-1.2-.2 0-.3.1-.5.2-.3.1-.5.3-.8.4-.4.1-.7 0-1.1 0-.2-.1-.6-.2-.7-.5.3-.9 1.3-1.3 2.1-1.7 1.1-.5 2.6-.7 3.7-.1.4.1.9.2 1.2-.1.5-.3.8-.8 1.4-.6.2-.1.3.1.5.2 1 1.4 2.3 2.6 3.4 3.8 1.4 1.2 3 2.7 4.5 3.9.3.2.5.4.8.6.6.5 1.2.9 1.9 1.4.1.2.1.3.1.5-.4.8-.7 1.5-1 2.3H77.3c0-.1.1-.2.1-.4l-.6-.6c-.2.2-.2.6-.3.9h-2.1zm40.2 0c-.1-.1-.3 0-.4-.1-.2-.1-.4-.1-.5-.3.1-.1 0-.4.2-.5.3-.9 1-1.5 1.5-2.4.9-.5 1.7.2 2.5.6l1.5.8 2.1 1.8-6.9.1zM80 86c.3.3.6.6.9.8 0 .2-.2.3-.2.4-.2 0-.4.1-.6 0v-.1c-.2-.3-.3-.8-.4-1.1 0 .1.2 0 .3 0z" fill-rule="evenodd" clip-rule="evenodd" fill="#fc0"/><path d="M58.1 47.9h.1c1.7.3 2.7 2 3.9 3.2.5.6 1 1.2 1.3 1.8.1.4.6.2.9.3.1-.1 0-.4.2-.4.3 0 .5.3.8.3.2.1.5 0 .8.1.2.3.6.6.9.7 1.4-.5 2.7-1.3 4.2-1.4.5 0 1-.1 1.5.1 1.4.7 3.1.7 4.6.8.2 0 .3.2.4.3-.1.4-.2.7-.2 1.1-.2 1.1-.4 2.3-.4 3.4-.1.9-.1 1.9.1 2.8-.1.1 0 .2 0 .4-.1.5.3 1.2-.3 1.4-.2 0-.5.1-.8 0-.2-.2-.4-.4-.5-.6-1.2.3-2.4.6-3.7.5-.8-.1-1.5-.4-2.2-.7-.6-.3-1.2-.7-1.7-1.1-.5.2-1 .5-1.4.9-.5 0-1 .2-1.6.3-.2-.2 0-.8-.4-.9-.5-.1-.9-.1-1.2-.4 0-.2.2-.4.3-.6.2-.3.5-.7.7-.9 0-.4-.5-.4-.7-.7-.6.1-1-.6-1.4-1-.9-1.2-1.7-2.5-2.5-3.7-.4-.5-.7-1-1.2-1.5-.5-.3-.7.4-1.1.5-.2.2-.5.4-.7.6-.4.4-.8-.2-1.2-.2-.1.9-1.2.7-1.7 1v-.1c-.9.4-1.8.8-2.7 1.1-2 .6-4.1.5-6.3.3-.8-.2-1.7-.3-2.4-.8 0-.1-.2-.2-.1-.4.9-1.6 2.6-2.5 4.2-3.1-.6-.3-1-.6-1.5-1-.4-.3-.8-.5-1.1-.9-.1-.2-.3-.5-.2-.7.3-.3.6-.5 1-.7l13.3-.1zm41.6 0c0 .6.1 1.2.2 1.8-.4.3-.8.8-1 1.3-.1.1-.2.3-.4.4-.2 0-.3-.2-.3-.4 0-.6.1-1.2 0-1.8-.3.1-.7.2-1 .5.1.5-.2 1-.1 1.5 0 .9-.1 1.8.1 2.7 0 .3-.1.7.1 1 .2 1.9.4 3.9.9 5.8.1.5.4 1 .5 1.5.2.6.4 1.2.6 1.7H83.8c-.1-.5-.3-1.1-.3-1.6-.2-.8-.4-1.6-.5-2.4-.2-1.3-.4-2.7-.3-4.2-1 .5-2.1.6-3.2.3l-.1-.1c.1-1.2.4-2.2.4-3.4-.1-.1-.1-.3-.3-.4-.3.1-.7.2-1 .4-.5 0-1-.1-1.3-.5-.4 0-.8.2-1.2-.1-1.2-.4-2.3-1-3.5-1.6-.4-.2-.8-.7-.9-1.1.2-.6.6-.9 1-1.3h27.1zm-27.1 6.9v.1c-1.2.2-2.2.6-3.2 1.2-.2-.1-.3-.4-.5-.6 0-.3.4-.4.6-.5.8-.4 1.7-.8 2.7-.6.2.1.3.3.4.4z" fill-rule="evenodd" clip-rule="evenodd" fill="#fc0"/><path d="M44.8 47.9c.5-.2 1-.3 1.4-.5.3-.1.7-.2 1-.2-.4-1-.8-2-.9-3.2.4-.7 1.4-.3 2-.4.7.1 1.3.3 2 .5.1-.7 0-1.6 0-2.3.1 0 0-.1 0-.2.2-.6 0-1.3.6-1.7.8.4 1.3 1 1.9 1.6.7.8 1.2 1.8 1.8 2.7 0 .2.2.3.2.4.3.7.6 1.4 1 2 .7-.5 1.1.5 1.7.6.1.2.2.6.4.6l-13.1.1zm27.7 0c.1-.1.2-.2.3-.2-.2-.4-.4-.9-.5-1.3-.6.1-1.4.3-1.8-.4-.3-.5-.7-.9-.8-1.4-.4-.6-.7-1.2-.9-1.9-.4-1.2-.9-2.2-1.2-3.4-.2-.6-.3-1.3-.5-1.9-.1-.5-.1-1-.4-1.4-.6.1-1.1.4-1.6.8-.1 0-.2.1-.3.1.1-.3-.2-.4-.4-.6-.5-.2-1.1-.2-1.7-.4l-.3-.6c-.9 0-1.7.2-2.5 0-1.3.1-2.6-.2-3.9-.3-.2-.1-.5 0-.6-.2-1.1-.2-2.3-.5-3-1.4 0-.7.8-1.1 1.3-1.5.8-.6 1.8-.8 2.8-1-.1-.5-.7-.8-.8-1.3-.3-.3-.5-.7-.6-1.1 0-.2-.1-.4 0-.6 1.2-.4 2.4-.7 3.7-.4h.1c-.2-.3-.1-.6-.4-.9-.2-1-.5-1.8-.4-2.8.1-.1.2-.4.4-.3 1.2.1 2.3.6 3.3 1.3 0-.1 0-.3.1-.5 0-.2.1-.4.1-.6.1-.4.1-.9.4-1.3 0-.5.2-1.1.4-1.5.1-.3.3-.6.6-.8.7-.2.7.7 1.2 1 1.4 2.4 2.5 4.9 2.6 7.8.7.1.7.9 1 1.4 0 .1 0 .3-.1.4.9 1.5 1.9 3 2.3 4.7.5 1.8 1 3.7 1.1 5.5 0 .1-.1.4.1.5.6.1 1.2.1 1.5.6.1 0 .2.1.3.2.2.2.6.5.6.8.1.2.4.3.6.4.5 0 .9-.6 1.4-.4.6.3 1.2.9 1.6 1.5.3 0 .7.3 1-.1 0-.2-.1-.4 0-.5.5-.1 1 .2 1.2.5.3.3.7.6.8 1.2-.1.2-.2.4-.4.6.2.2.2.5.5.7.3 0 .5-.2.8-.3.3-1.4 1-2.7 1.9-3.8.4-.3.7-.7 1.2-1.1.7-.6 1.3-1.2 1.9-1.7 1.2-.9 2.4-1.9 3.3-3.1.7-.8 1.2-1.7 1.6-2.6.1-.4.3-.8.3-1.2 0-.8.1-1.8-.7-2.4-1.6-1.7-4-2-5.5-3.7-1.3-1.5-2.2-3.4-1.9-5.6 0-.1.1-.2.2-.2 1.8.3 3.1 1.7 4.6 2.7.6.5 1.3.9 2 1.3.2 0 .4.1.5-.1 0-.4-.2-.8-.3-1.1-1-1.6-2.2-3.2-2.7-5-.2-.3-.3-.6-.4-.9.1-.3.1-.5.4-.6.5 0 1 .2 1.5.2 1 .4 2.1.6 3.2.6 1.6-.2 3.2-.8 4.8-.2l.8.2c0-.4-.2-.7 0-1.1.4-.1.7-.5 1.1-.4l.4.5c.9 2 2.3 3.9 3.7 5.6 1.2 1.5 2.8 2.8 4.5 3.5.4.2.2.5.3.8 0 .3-.2.6-.1.9-.3.2-.6-.1-.8-.2.2 1.9-.4 3.8-.9 5.6-.1.1-.1.1-.1.3-.5 1.2-1.1 2.4-1.3 3.7-.2.4-.2.9-.3 1.3-.8.6-1.5 1.5-2.2 2.2-.1 0-.2 0-.3-.2 0-.3.2-.5.2-.7.2-.6.3-1.3.4-1.9 0-.2.1-.5-.1-.7-.2.1-.4.1-.5.3-.1 1.5-.6 2.9-1.1 4.3-.5 1.6-1.1 3.1-1.1 4.9v1.5l-27.5-.6zm3.6-3v.5c-.6 0-1.3-.1-1.9.1-.1-.2 0-.3 0-.6.2-.1.5-.2.7-.2.3.1.8 0 1.2.2zm47.6-21.6c.1.2.1.4 0 .6-.3.3-.8 0-1.2.1-.4.2-.4.7-.5 1.2 0 .2.1.4-.1.6-.6 0-1.2-.1-1.5-.7-.2-.3-.7.1-.8-.4-.2-.3-.1-.7 0-1 .2-.1.4-.3.6-.2.3-.4.6-.7 1-.9.6-.3 1.2-.1 1.7.1s.6.4.8.6zm-14.3-.9c.1.3-.2.5-.2.8-.1 0-.3.1-.5 0-.2-.2-.5-.4-.4-.7.1-.2.3-.3.5-.3.3 0 .5 0 .6.2zm-2.2-1.6c.2.3-.2.5-.1.9-.1.1-.4.1-.6.1-.2-.1-.4-.4-.4-.7-.1-.1.1-.3.2-.4.3.1.5-.3.8 0l.1.1zm-9 .6c.1.3.2.6.2.9-.2 0-.4 0-.6-.1-.2 0-.4.1-.4.3 0 .2-.1.4-.1.7-.6.1-1.3 0-1.7-.4-.4-.5-.3-1.2 0-1.7.2-.4.7-.5 1-.6.6 0 1.4.2 1.6.9zm6.9-2.6c.3.3.1.7 0 1-.1.1-.2.1-.4 0l-.1-.1c-.1 0-.3 0-.4-.1-.1-.1-.3 0-.3-.2 0-.3.1-.8.4-.9.4.1.7.1.8.3zm-1.8-2.3c.1.3 0 .7-.1 1-.3.2-.7.1-1-.1-.1-.3-.1-.7.1-.9.4-.1.8-.3 1 0zm14.5-4c-.2.6-.7.1-1.1.4-.4.4-.4 1-.4 1.5 0 .1-.1.2-.3.3-.3-.2-.7-.1-1 0-.6-.1-.7-.6-1.1-.9-.1-.3-.2-.6.1-.9.2-.2.7.1.7-.4.1-.3.3-.6.6-.9.5-.2 1.2-.3 1.7-.1.3.3.7.6.8 1zm-37.9-.8c.9 1.2 1.1 2.7 1.9 4 .2.5.8.7.8 1.3-.4.2-.9.1-1.3.1-1.4-.2-2.4-1.7-2.8-3-.5-1.1-.5-2.5-1.7-3.3 0-.1.1-.2.2-.3 1.2-.2 2.2.4 2.9 1.2zM105 9.2c.3.8.5 1.7.8 2.6 0 .5.2 1 .2 1.5.1 0 0 .1 0 .1 0 .6.1 1.3.2 1.8.7-.3 1.5-.2 2.2-.4.5 0 .9-.1 1.5-.1s1.1 0 1.7-.1c.3.1.7 0 1 .2.3.4 0 .9 0 1.3-.4.9-.7 1.7-1.2 2.5-.2.3-.3.7-.6 1-.1.4-.4.7-.5 1.1 1.7.2 3.4.7 5 1.3.1.2.3 0 .4.1.4.2.8.5 1.2.8 0 .1 0 .2-.1.4-.3 0-.6-.1-.8 0h-.2c-.7.2-1.5.1-2.2.4-.4-.1-.7.1-1.1.2-.7.2-1.5.3-2 .7 0 .3-.2.4-.5.5-.4 0-.8.1-1.2.1-.1-.3-.2-.6-.6-.7-.1-.1-.2-.1-.3-.1-.6-.4-1.3-.7-1.8-1.3-1.7-1.4-3.2-2.9-4.6-4.6 0-.2-.4-.4-.5-.6-.5-.7-1-1.4-1.4-2.2 0-.1 0-.2.1-.4.6-.1.8-.9 1.3-.9.4.2.6.7 1.1.4.5 0 .5-.7.6-1 .5-1.9.7-4 .7-6 0-.2 0-.4.2-.5.2 0 .3 0 .5.1.4.4.6.8.8 1.3.1.3.1.5.1.5zm.1-7.1c0 .4-.4.4-.6.6-.3.2-.5.5-.5.8.2.1.5.2.6.4-.1.4.2.9-.2 1.1-.5.4-1.2.1-1.6-.2-.5-.4-.8-.9-.8-1.5.1-.7.4-1.5 1.1-1.9.4-.2 1-.2 1.4 0 .2.2.3.5.6.7z" fill-rule="evenodd" clip-rule="evenodd" fill="#fc0"/><path d="M95.6 114.1c1.7.9 3.3 2.1 4.6 3.5.3.6.8 1 1 1.6 0 .2-.1.4-.3.4-.6-.1-1.4-.1-2-.4-.5-.6-1.1-1.2-1.6-1.7-1.4-1.3-3.1-2.2-5-2.3-.8 0-1.6.1-2.1.7-.7.3-1.4-.3-2.1-.4-.3-.1-.6-.3-.8-.7 0-.3.1-.6.2-.8l8.1.1zm8.1 0c.1.2 0 .5 0 .7-.3.5-.5 1.1-.7 1.6-.3.8-.5 1.7-.9 2.4l-.1.1-1.1-1.1c-.3 0-.2-.3-.3-.5.1-.3.3-.5.3-.8.1-.1.2-.3.2-.4-.7-.5-1.3-.9-1.9-1.4-.1-.2-.3-.3-.5-.5l5-.1zm9.7 0c-.3.5-.6.9-.9 1.4 0 .2-.2.3-.3.5-.3.5-.7.9-1 1.4-.3.6-.8 1.2-1.1 1.8-.2.2-.2.6-.4.8-.3.8-.8 1.6-.6 2.5.1.6.4 1.3-.1 1.8s-.8 1.1-1.4 1.5c-.6.1-.8-.6-1.2-.9-.4-.8-.8-1.7-.7-2.7-.1-.4.2-.8.3-1.2 0-.1.1-.3.1-.4.3-.8 1-1.5 1.5-2.3h.1c.9-1.4 1.8-2.6 2.6-4v-.2h3.1zm16 0c.8.2 1.6.5 2.4.7.3.1.5.2.7.5 0 .1 0 .3-.1.4-.1.7.1 1.9-.8 2.3-.5.1-1 .2-1.5.1-1.9 0-3.8-.7-5.5-1.7-.5-.2-.8-.7-1.3-.8-.6-.5-1.2-.9-1.7-1.5h7.8zm8.7 0c0 .9-.1 1.9-.3 2.8-.1.8-.3 1.7-.5 2.4.1 0 .4 0 .5.2 0 .3-.2.4-.2.6-.2.4-.4.9-.8 1.1-.3.4-.8.8-1.4.6-.3-.3-1.1-.3-.9-.9 0-.2.1-.3 0-.5-.2 0-.3-.2-.4-.3 0-.4.2-.7.2-1-.2-.2-.5.1-.7 0-.2 0-.5-.1-.6-.3-.1 0-.2-.2-.1-.3-.2-.4-.2-.9 0-1.2.4-.3 1-.1 1.3-.5l.3-.4v-2.2l3.6-.1zm-52.4 6c1.3.1 2.6.3 3.7.7l.9.3.6.3c.7.4 1.4.8 2.1 1.3.1 0 .1.1.2.1.1.3.5.5.2.8-.3.4-.7.5-1 .6-.6-.2-1.2-.5-1.8-.8-2.2-.8-4.8-1.8-7.2-1.1-.4.1-.9.4-1 .8 0 .3.1.6.4.7 1.1.6 2.4.3 3.6.6.9.2 1.9.3 2.8.8.4 0 .6.4 1.1.4 1.1.6 2.1 1.3 3.2 1.6.8-.3 1.4-.8 2.3-1 2-.6 4.4-.5 6.4-.3 1.5.2 2.9.8 4.4.5.2-.1.3-.2.5-.3.6.1 1.1.7 1.4 1.1 0 .3 0 .6-.1.9-.6.9-1.8.7-2.8.6-2.4-.5-4.8-1-7.2-.7-1.7.2-3.1 1-4.6 1.6-1.7.5-2.8-.8-4-1.8-.7-.4-1.4-.8-2.2-1.1-2.3-.5-4.7-.3-6.8-1.2-.5-.2-1-.7-1.4-1.1-.5-1 .1-2 .7-2.7.8-1 2-1.3 3.1-1.5.6-.1 1.2 0 1.8-.2.3.2.5.1.7.1zm10.1-.4c.3.2.3.7.2 1-.1.2-.3.4-.5.5-.7.1-1.3-.1-1.8-.6-.5-.2-.8-.6-1.2-.8 0-.1-.1 0-.1-.1-.4-.1-.8-.5-1.2-.7-.6-.1-1.2-.6-1.9-.6-1-.2-2.4-.5-3.4.1-.8.1-.8 1.2-1.6 1.2-.7.1-1.6.2-2-.5-.4-.8.1-1.8.7-2.5.8-.7 1.8-.9 2.9-.9 3.7.1 7.3 1.4 9.9 3.9z" fill-rule="evenodd" clip-rule="evenodd"/><path d="M57.4 106.1c-.1.3.3.4.4.5 1.7.6 3.6.4 5.4 1.1 1.5.5 3 1.1 4.3 2 .7.5 1.3-.1 1.9-.3.7-.1 1.1-.7 1.9-.6.3-.3.7-.1 1-.3.4-.1.8 0 1.2-.1.8 0 1.7.1 2.5.2.1.1.3 0 .5.1 1 .1 2 .4 3 .5.7.1 1.7 0 2.4-.3.8-.1 1.3.5 1.7 1 .1.5-.2 1-.6 1.3-.7.6-1.6.4-2.5.5-1-.1-1.9-.4-2.9-.4-.3-.2-.6 0-.9-.1-.6-.1-1.2-.2-1.9-.1-1.1-.1-2.2 0-3.3.3l-1.7.6c-1 .5-2.3 1.4-3.4.5-.7-.5-1.4-1.1-2.2-1.5-.2-.2-.5-.2-.7-.4-2.4-1.1-5.1-.8-7.6-1.7-.6-.3-1.4-.7-1.6-1.4-.1-.4-.1-.8 0-1.2l3.1-.2zm10.8 0c0 .2-.2.4-.3.6-.6.4-1.4.7-2 .4-.3-.2-.6-.2-.8-.4-.4-.2-.9-.4-1.3-.6h4.4zm16.5 0c.1.2.1.5.1.8 0 .4-.1.8-.4 1.1-.5.3-.7 1.1-1.4.9-1.1-.4-1.6-1.6-1.8-2.7l3.5-.1zm13.5 0c.1.2.1.5.2.8.6 1.8 1.5 3.4 2.8 4.9.6.8 1.4 1.3 2.2 1.9.2.1.3.3.3.5h-5.2c-.1-.1-.2-.2-.2-.3 0-.1-.2-.1-.2-.2-.3-.3-.6-.6-.8-.9-.3-.3-.6-.8-.9-1.2 0-.3-.3-.3-.4-.5-.1-.4-.4-.7-.5-1-.1-.2-.2-.5-.3-.7-.3-.5-.3-1-.6-1.5-.1-.6-.3-1.1-.5-1.7l4.1-.1zm14 0c-.2.2-.3.2-.5.3-.2-.1-.5-.2-.7-.3h1.2zm8 0c.6 1.2 1.4 2.2 2.3 3.2.9 1 1.9 2 2.9 2.8 1.1.6 2 1.4 3.1 1.7.2.2.6.1.9.3h.1-7.9c-1.1-1-2-2-2.8-3.3-.6-.7-1.1-1.6-1.6-2.5-.4-.7-.8-1.5-1.2-2.3l4.2.1zm16.6 0c.1.2.1.4.2.6.7 2.3 1.1 4.9 1.1 7.4h-3.8c0-1.3-.1-2.5-.3-3.7-.3-1.5-.6-3-1.1-4.3h3.9zm-49.4 8c.4-.5 1.2-.7 1.7-1 .6-.2 1.3-.3 1.9-.3.8.1 1.5.2 2.2.4.8.2 1.6.5 2.3.9h-8.1zm23 0c0-.1.1-.2.2-.2.9-1.9 2-4 1.2-6.1 0-.3-.3-.5-.2-.9.1-.2.4-.4.7-.5.8.1 1.7 0 2.2.6.7.9.7 2.2.5 3.3-.1.1 0 .3-.1.5-.1.6-.4 1.2-.7 1.8-.2.5-.5 1.1-.8 1.6l-3-.1z" fill-rule="evenodd" clip-rule="evenodd"/><path d="M72.2 98.1c.9.6 1.7 1.2 2.3 2.2.1.2 0 .3-.1.5-.2.1-.4.3-.7.2-.5-.3-.9 0-1.4-.1-.6-.3-1-1-1.6-1.3-1.5-1.2-3.3-1.5-5.2-1-.7.5-1.5 0-2.3-.1-.4 0-.8-.1-1.1-.4h10.1zm3.7 0c0 .1 0 .2.1.3-.2.4-.6.8-.9 1.1-.8.1-1.2-.7-1.8-1-.1-.1-.2-.2-.2-.4h2.8zm9.7 0c-.1.7-.3 1.3-.6 1.9-.6 1.1-1.1 2.2-1 3.5.1.2 0 .5.1.7-.1.3.2.5.1.7.1.1.2.3.2.4.1.3.2.5.3.8h-3.5c0-.1 0-.2-.1-.3-.7-2.7.6-5.2 1.3-7.7h3.2zm7.5 0c0 .3.1.5.1.8.1.1.1.3.1.4.2.6.4 1.3.8 1.8.3-.5.1-1.3.9-1.4.4-.1.8.4 1.1 0 .1 0 .2-.2.3-.2 0-.2.2-.2.3-.3.2-.1.3-.2.5 0 .5.5.2 1.3.2 1.9 0 1.5.2 2.8.5 4.2 0 .2.1.4.1.6 0 .1.1.1.1.2h-4c-.1-.3-.1-.6-.1-1-.1-.2 0-.5-.1-.7-.3.1-.4.5-.8.5-1.2-.2-2.3-1.1-2.8-2.2-.5-.9-.8-2-.9-3.1-.2-.4-.2-.8-.2-1.3v-.2h3.9zm18 0c.1.4.1.8.2 1.2.4 1.3.8 2.4 1.4 3.5 0 .2.2.3.3.5.1.4.3.7.3 1.2-.3.6-.8 1-1 1.6h-1.1c-1.1-.7-1.8-2.1-2.4-3.2-.5-1.6-.6-3.2-.5-4.8h2.8zm5.7 0c.2.8.5 1.5.7 2.3.3.5.4 1 .6 1.5.4 1.1.9 2.2 1.5 3.2 0 .1.1.2.2.4l.3.6h-4.3c-1.2-2.5-2.1-5.2-2.7-8h3.7zm16.7 0c.1.2.2.3.3.5.6 1.2 1.1 2.3 1.6 3.5.6 1.3 1 2.6 1.4 4h-4c-.1-.2-.2-.4-.2-.6-.6-1.8-1.5-3.6-2.4-5.3l-1.2-2.1h4.5zm-79.1 8c.1-.2.1-.4.3-.5v-.1c.4-.6.9-1 1.5-1.5.2 0 .4-.3.6-.4.7-.4 1.7-.5 2.5-.6 2.7-.1 5.3.6 7.5 1.8.5.2.8.6 1.3.9.1.1.1.2.1.3h-4.5c-.3-.1-.6-.3-.9-.3-1.7-.5-4.1-1.4-5.5.3l-2.9.1zm12.2-6.2l1.2.6c1.1.7 2.3 1.1 3.1 2.3.1.2.1.5 0 .7-.2.3-.4.7-.8.7-.9 0-1.5-.7-2.2-1-.2-.2-.5-.3-.7-.5-.3-.2-.6-.4-1-.5-.2-.2-.4-.2-.6-.3-1.8-.6-3.9-1-5.4.4-.1.2-.3.4-.5.6-.7.1-1.8.4-2.2-.4-.4-1.2.5-2.1 1.2-2.8 1.3-.9 3.4-.8 4.9-.5 1 .1 2 .3 3 .7z" fill-rule="evenodd" clip-rule="evenodd"/><path d="M74.8 90.1c-.1 1.1-.1 2.3.1 3.3-.1.4.1.7.1 1 .1.9.3 1.7.6 2.6.1.4.2.7.3 1.1H73c-.7-1.2-.8-2.7-1-4.1-.1-1.3-.2-2.6-.1-3.9h2.9zm12.2 0c.2.1.4.1.6.2.6 0 1.4.2 1.6.9.3.2.2.6.2.9-.5.5-1.3.4-2 .4-.2-.1-.4-.1-.6-.2-1-.2-2-.6-3-.9-.1-.2-.2 0-.4-.1-.6-.3-1.2-.7-1.6-1.2H87zm6.5 0c-.1.5-.2.9-.3 1.5-.3 1.4-.3 3-.4 4.4.1.7.2 1.4.3 2.2h-3.8v-2.5c.1-.6.1-1.2.2-1.7v-.5-.3c.2-.4 0-.7.3-1.1-.1-.7.3-1.3.4-2h3.3zm18.1 0c-.6 2.6-.9 5.3-.5 8h-2.9c.1-1.6.3-3.2.4-4.7.2-1 .4-2 .5-3 0-.1 0-.2.1-.3h2.4zm3.8 0c.2 1.6.2 3.3.6 4.6.1.9.3 1.8.6 2.7.1.2.1.5.2.7h-3.6c-.1-.3-.1-.6-.2-.9-.3-1.7-.8-3.5-.5-5.3.1-.5-.1-1 .2-1.4.2-.2.3-.3.5-.4h2.2zm12.6 0c.5.6 1.1 1.2 1.6 1.9l.4.4c1.4 1.9 2.4 3.8 3.6 5.7H129c-.7-1.2-1.4-2.4-2.1-3.5 0-.1-.2-.2-.2-.4-1.1-1.5-2.3-2.9-3.6-4.1h4.9zm-66 8c-.1-.1-.1-.2-.2-.3 0-.6.5-.9.8-1.2 1.7-1.4 4-1.1 5.9-.4 1 .4 2 .8 2.9 1.4.3.2.6.4.8.5H62zm20.5 0c.1-.2.1-.5.2-.7.3-.9.3-1.9.2-2.9 0-.7-.4-1.3-.6-2 0-.2.1-.3.3-.4.8-.1 1.7.4 2.4.9.2.2.4.5.5.8.5 1 .3 2.3.3 3.4 0 .3-.1.6-.2.9h-3.1z" fill-rule="evenodd" clip-rule="evenodd"/><path d="M73.8 82.1c0 .1.1.1.1.2.1.3.3.6.2.9 0 .2-.3.2-.4.4-.7.2-1.5.8-2.1.1-.5-.5-.9-1-1.2-1.6h3.4zm20.5 0c.3.2.6.4.9.5h.4c.2-.1.4-.4.6-.6h1s.1.1.1.2c.1.9-.3 1.7-.3 2.6 0 .2-.1.4-.2.6-.1.1-.4.1-.5 0-.3-.1-.4-.5-.5-.7-.4.2-.5.6-.8 1-.5.9-.8 1.9-1.2 2.9-.1.5-.2 1-.3 1.4h-3.2v-.2c.3-.7.4-1.6.9-2.4.1-.8.6-1.3.9-2.1-1.6-1.1-3.2-1.9-4.6-3.3l-.1-.1 6.9.2zm19.4 0v.3c-.4 1.5-.7 2.9-1.3 4.2-.3 1.1-.6 2.3-.9 3.5H109c.5-2.8 1.2-5.3 1.7-8h3zm-41.9 8l.3-2.1c.2-1.1.5-2.3 1-3.3.1-.1.2-.3.4-.3.8.1 1.4.6 1.9 1 .4.4 0 .9 0 1.3-.1.3-.1.6-.2.8-.1.7-.3 1.5-.3 2.3v.3h-3.1zm10 0c-.4-.4-.7-1-.8-1.6 0-.3.3-.5.6-.6.8.1 1.5.3 2.3.5.6.1 1.1.1 1.5.6.4.5 1 .8 1.6 1.1h-5.2zm31.4 0c.5-.3 1.2-.4 1.7-.8.2.1.4.1.5.4v.4h-2.2zm9.9 0c-.8-.8-1.7-1.6-2.6-2.3-1.1-.9-2.4-1.6-3.6-2.4-.5-.2-1-.6-1.6-.5-.3-.1-.2-.4-.5-.4-.4-.5.4-.7.6-1 .8-.4 1.6-1.3 2.6-.8.3.2.6.1.9.4.6.1 1 .6 1.5.8 2.5 1.5 5.2 3.3 7.2 5.6.2.2.4.4.5.6h-5zm-41.7-3.5c.1.1.2.3.1.4-.2.2-.3.5-.3.8-.1.2-.3.2-.5.2-.4-.2-1.2-.1-1.3-.8.1-.5-.6-1.3.2-1.5.7.1 1.2.5 1.8.9z" fill-rule="evenodd" clip-rule="evenodd"/><path d="M46.3 50.1c.4.3.9.6 1.3.9.1.1.1.2.1.4-.2.2-.5.3-.6.3-1 .3-2 .9-2.8 1.7l-.7.7c0 .1.2.2.3.3.1-.1.1.1.3.1 3.1 1.1 6-.2 8.8-.9.3-.1.6-.1.8-.3.1.1.2 0 .3 0 .2 0 .3-.1.5 0 .2.3.1.6.2.9-.6 1-1.7 1.7-2.8 2.1-2.6.9-5.6 1.2-8.3.8-1.3-.4-3-.5-3.6-2-.2-.6.2-1.1.6-1.6.7-.9 1.6-1.8 2.6-2.2.2-.1.4-.3.7-.3v-.1c-.3-.2-.7-.4-1-.7l3.3-.1zm17.4 0c.4.5.7.9 1.1 1.4.2.5.5.9.3 1.5-.1.3 0 .6-.2.9-.1.2-.3.3-.5.3-.4-.1-.8-.1-1.2-.2-1.1-1.2-2-2.7-3.1-3.9h3.6zm9.9 0c1.1.6 2.2 1.4 3.6 1.2.5-.1.5.5.9.4.6.1 1.2-.7 1.6 0 0 .2.3.3.2.5.1.8-.3 1.6-.3 2.5 0 .3-.1.6-.1.9.1.3-.1.7 0 1v.1c0 1.3.2 2.6.3 3.9.3.5 0 1 .4 1.5 0 .5.1 1 .3 1.3 0 .4.2.8.3 1.2.4 1.1.8 2.1 1.3 3.3.4.7.7 1.6 1.1 2.3 0 .4.5.6.5 1 .4.5.7 1 .9 1.5h.1c.4.5.6 1.1 1.1 1.5.1.3.4.5.6.8 1.6 1.9 3.4 3.5 5.3 5.1.9.8 1.8 1.4 2.8 2h-6.9c-.6-.5-1.1-1-1.7-1.5-.5-.6-1.1-1.1-1.6-1.6-1.3-1.5-2.8-3.1-3.6-4.9-.2-.2-.4-.5-.4-.8-.5-1.1-1.1-2.2-1.5-3.3-.3-.5-.4-1-.6-1.6-.1-.6-.4-1.3-.5-1.9-.2-.6-.2-1.2-.4-1.8 0-.6-.2-1.2-.2-1.7-.1-.1-.2.1-.2.1-.7.4-1.5.8-2.3.9-1.3.3-2.5.3-3.8.1-.9-.3-1.8-.4-2.6-1-.6-.4-1.1-1.1-1.8-1.3-.2-.2-.1-.4-.1-.7.1-.3.3-.3.6-.5.6-.4 1.3-.9 2.1-.8.1.2.4.2.5.4.8.5 1.5 1 2.4 1.2l.1.1c1.5.2 2.9.1 4.3-.5.4 0 .4.5.7.7l.1-.1c-.2-1-.2-2-.2-3v-.1c-.1-.9 0-2 .2-2.9 0-.6.2-1.2.4-1.8-.3-.1-.7-.1-1.2-.1-.9-.1-1.9-.4-2.8-.7-.3-.2-.6-.1-1-.1-1.8 0-3.5.6-5 1.4-.2 0-.4.1-.6 0-.2-.6-1.2-.7-1-1.5.9-.8 2.1-.9 3.2-1.3.5 0 1-.1 1.5-.2-.4-.4-.9-.9-1.1-1.4l4.1.2zm25.1 0c.1 1.2.1 2.4.3 3.6.1 1 .4 2 .5 2.9.3.5.2 1.1.5 1.6 0 .2.1.4.2.6.3 1 .7 2 1.1 3 .2.5.4 1.1.7 1.5l.6 1.2c1.4 2.6 3.3 5 5.5 7.2 1.4 1.3 2.8 2.4 4.3 3.6.5.6 1.1 1.1 1.3 1.9.6 1.5.3 3.1.2 4.7v.1H111c.1-.3.1-.7.2-1 .2-1.2-.2-2.4-.8-3.3-.2-.2-.4-.2-.5-.5-1.2-.7-2.3-1.7-3.3-2.7-2.1-1.8-3.8-4-5.4-6.1-.7-1-1.3-2-1.9-3 0-.3-.2-.6-.3-.9-.2-.3-.2-.6-.4-1-.9-2.5-1.4-5.2-1.7-7.8-.1-1.9-.3-3.8-.2-5.6h2zm4.1 0c.3 1 .7 1.9.9 2.9-.3.5-.2 1.2-.8 1.4-.8.3-1.2-.5-1.7-.9-.1-.3-.4-.5-.5-.8-.6-.7-.9-1.6-1.2-2.4v-.2h3.3zm-32.5 32c-.8-1.3-1.1-2.8-.8-4.2.1-.1 0-.3.1-.4.5-1.4 1.9-2.1 3.2-2.6 1.3-.4 2.6-.6 3.9-.7 1 .1 1.9.1 2.8.3.6.1 1.1.8 1.2 1.5-.1.3-.5.5-.7.6-1 .5-1.9-.4-3-.2-1.3-.1-2.5.4-3.3 1.4-.2.2-.4.5-.4.7-.6 1.2-.4 2.6.3 3.7l-3.3-.1zm25.8 0c.1-.1.3-.2.6-.2.1 0 .3.1.4.2h-1zM58.3 53.7c.9.8 1.4 2.1 2.1 3 0 .2.3.4.3.7.5.5.8 1.2 1.3 1.7.5.1.5.7 1 .8.2.2.6.2.9.4.3 0 .5.2.8.2.3.1.7.1.8.4.1.3.1.7.3 1 0 .3.3.6.2.9-.6.5-1.4.3-2.1.3-1.3-.3-2.3-.8-3.3-1.7-.7-.6-1.3-1.5-1.8-2.2-.1-.2-.3-.4-.4-.6-1.1-1.4-1.6-3-3-4.1-.1 0-.3-.1-.3-.2.1-.4 0-.7.1-1.1.1-.2.3-.5.5-.5.9 0 1.8.3 2.6 1z" fill-rule="evenodd" clip-rule="evenodd"/><path d="M55.7 34.1c.2 0 .4 0 .5.1 1.2.3 2.7.2 3.9.3.3-.1.6 0 .8-.1.5 0 1-.1 1.5 0 .2.1.4.4.4.7.3.1.6.1.9.2 1.5.8 1.7 2.5 2.3 3.8.8 1.9 1.5 3.7 2.3 5.6v.2c.5.8.7 1.7 1.3 2.4.2.3.5.4.9.5.3.1 0 1 .5.5.1.2.3 0 .4.1.7.6 1.2 1.4 2 1.8h.1-4.4c0-.1 0-.1-.1-.2-.4-.3-1-.2-1.4-.6-.5-.2-.8-.7-1.2-1-.2-.3-.4-.5-.5-.9-.2-.3-.4-.8-.7-1.2 0-.1 0-.2-.1-.3-.5-1.2-.7-2.6-1.2-3.9 0-.1-.1-.2 0-.4-.3-.9-.7-2-.9-3-.1-.3-.2-.7-.4-.9-.4-.4-.5-1.3-1.2-1-2.1.6-4.6.4-6.7-.2-1.2-.3-2.6-.8-3.6-1.6-.4-.3-.7-.5-1-.9h5.6zm15.7 0c.3.7.6 1.5.8 2.2 0 .2.1.3.1.5.4 1.4.7 3.2.5 4.7-.2.5-.7.5-1.2.5-.5-.2-1.1-.4-1.1-1-.3-1.8-.5-3.7-1.2-5.3-.1-.2-.1-.5-.2-.7-.1-.3-.2-.6-.3-.8l2.6-.1zm19.9 0c-.1.4-.2.7-.4 1-.5.9-1.1 1.8-1.9 2.6-.6.8-1.5 1.4-2.2 2.1-1.5 1.3-3.1 2.6-4.1 4.3-.2.1-.2.4-.4.5-.3.5-.3 1.2-.4 1.8-.1.1-.2.1-.4.1-.5.1-1 .6-1.5.4-.4-.4-.6-.9-.9-1.4 0-.4.5-.2.7-.5-.3-.3-.3-.8-.3-1.2.5-1.8 2.1-2.9 3.4-4.1.7-.4 1.2-1.1 1.9-1.5 1.4-1.3 2.9-2.8 4.1-4.3l2.4.2zm15.5 0c-.1.4-.2.7-.3 1.1-.2 1-.4 2.1-.5 3.2-.2 1.3.4 2.9-.9 3.7-.2.4-.7.5-1.1.4-.5-.2-.6-.7-.7-1.2 0-.8 0-1.5.1-2.3.3-1.8.9-3.3 1.5-5l1.9.1zm-64 16c-.6-.5-1.2-1.2-1.3-1.9.5-.9 1.6-1.2 2.4-1.7.5-.2.9-.3 1.3-.5-.5-1.2-.9-2.6-.7-3.9.2-.6.8-.4 1.3-.5 1 0 2 .3 3 .5l.1-.1c-.1-1.4 0-3.1.7-4.3.3-.3.9-.2 1.3-.1.6.2 1.2.7 1.7 1.2.8.8 1.5 1.6 2.1 2.5.9 1.2 1.5 2.4 2 3.8.3.5.4 1.3.4 1.8-.3.5-.9.7-1.4.6-.5-.3-.5-.9-.7-1.4-.8-1.9-1.7-3.6-3.4-5.1-.4-.1-.2.4-.4.6v1.5c-.1.6.2 1.2 0 1.8-.1.1-.4 0-.5 0-1-.3-1.9-.7-3-.6-.1.1-.3.1-.3.3 0 .7.3 1.3.6 2 .1.4.5.7.4 1.2-.6.4-1.3.2-2 .5-.4.1-.9.3-1.3.6.4.4.8.8 1.3 1.1l-3.6.1zm17.4 0c-.4-.4-.8-.8-1.3-1.1-.7-.2-1.7-.3-1.9-1.2.1-.2.1-.5.2-.6.3-.2.6-.6 1-.6.4-.3 1 0 1.5.1l.6.3c.2 0 .3.3.5.3 1 .8 2.1 1.8 3 2.9l-3.6-.1zm36.3 0c0-.3.1-.5.1-.8.3-.7 1.3-.3 1.7-.9.2 0 .3.1.4.2.1.3.2.7.1 1v.5h-2.3zm3 0c-.5-2.1-.7-4.5 0-6.7.4-1.9 1.1-3.8 1.6-5.7v-.2c0-.4 0-.9.5-1.1.4-.1.8-.1 1.1.1.1.3.2.6.1.9 0 1.7-.7 3.2-.9 4.9-.1 1.8-.4 3.6.1 5.3.2.9.5 1.7.8 2.5h-3.3zm6.6-7c-.1.5-.2 1.2-.6 1.5-.6 0-1.1-.3-1.5-.7-.1-.1-.1-.2-.1-.4.1-.2.2-.4.4-.5.6 0 1.3-.3 1.8.1zm-27.5-.5c.3.3.6.9.5 1.4-.2.4-.5.9-1.1.9-.5 0-.9 0-1.3-.3-.3-.6-.9-1.1-1.6-1-.3.4-.8.4-1.2.3-.5-.2-1-.6-1.1-1.1-.1-.7.7-1.1 1.2-1.5 1.2-.4 2.7-.3 3.7.5.4.2.7.5.9.8z" fill-rule="evenodd" clip-rule="evenodd"/><path d="M58.8 26.1c.1.5.3 1 .4 1.4 0 .1-.1.3-.2.4-1 .2-2-.1-3 .2-.1-.1-.3.1-.3.2-.1.3.2.6.3.9.4.7 1.1 1.1 1.5 1.8-.1.4-.6.4-.9.5-1.1.2-2.3.5-3 1.5 0 .1-.1.3 0 .4.4.2.9.4 1.3.5.3.1.6.2.9.2h-5.6c-.2-.3-.3-.5-.3-.9.4-1.6 2-2.3 3.3-2.9.3 0 .6-.2.8-.3-.1-.3-.5-.5-.5-.8-.4-.5-.6-.9-.8-1.5-.1-.3-.1-.7 0-1.1.2-.3.6-.5.9-.6l5.2.1zm9.4 0c0 .7 0 1.5-.1 2.2-.1 0 0 .1 0 .2-.1.2-.2.5-.5.5-.4.1-.8 0-1.2-.1-.1-.1-.3-.2-.3-.4.2-.2.1-.5.1-.7 0-.6-.1-1.3-.3-1.9l2.3.2zm17.5 0c1.6 1.4 3.9 1.9 5.3 3.7.1.1.1.3.2.4.4.6.4 1.3.5 1.9-.1.7-.2 1.2-.4 1.9v.1h-2.4c.1-.1.1-.2.2-.2.5-.9 1-2.3.3-3.1-.9-1-2.2-1.1-3.3-1.7-.4-.1-.6-.5-1-.6-.8-.6-1.6-1.4-2.1-2.3l2.7-.1zm23.5 0c0 .1 0 .1 0 0 0 .2-.2.3-.3.4-.6 0-1.1-.1-1.6-.3 0 0-.1 0-.1-.1h2zm15.7 0l-.6.6a4.1 4.1 0 0 1-4.5.3c-.3-.2-.6-.5-.8-.9h5.9zm-56.1 8c-.5-1.2-1.2-2.4-1.8-3.5-.1-.4.3-.7.6-1 .3-.1.8-.1 1.1 0 .6.4 1 1.1 1.4 1.8.5.9 1 1.8 1.4 2.7h-2.7zm36.2 0c0-.1.1-.2.1-.3.1-.3.3-.6.3-1 .5-1.6 1-3.3 1-4.9-.1-.4 0-.7-.1-1.1.1-.1.1-.4.3-.4.3 0 .6.2.8.3.4.1.7.3.8.7.2.7.1 1.3.1 2-.1.5-.2 1-.4 1.5 0 .2-.1.4-.1.6-.4.8-.6 1.8-.9 2.7l-1.9-.1z" fill-rule="evenodd" clip-rule="evenodd"/><path d="M64.5 18.1l.2.2.7.8c.6.9 1.2 1.7 1.5 2.7.7 1.3 1.1 2.9 1.2 4.4h-2.4c-.4-1.5-1-2.8-1.7-4.2-.2-.4-.5-.6-.8-.9-.7.8-.6 1.9-.9 2.9-.1.5-.1 1-.2 1.5-.1.1-.2.2-.4.2-.7-.2-1.3-.9-2-1.1-.4 0-.7-.5-1.1-.2-.1.6-.1 1.2.1 1.7h-5.3c.6-.2 1.2-.3 1.7-.4.4 0 .8 0 1.1-.1-.3-1-.5-2.1-.5-3.3l.3-.6c1-.7 2.2 0 3.2.4.4.1.7.4 1.1.3.1-.1 0-.3.1-.5-.1-.1.1-.2 0-.4.3-.9.6-1.9 1.1-2.8.1-.2.3-.4.4-.6h2.6zm19.8 0c-.2.1-.4.1-.6.2-.8.1-1.8 0-2.7-.2h3.3zm3.6 0c0 .3.2.6.4.9.4 1.1 1.3 2 1.7 3 .1.3.4.5.5.9.3.4.5.9.7 1.4.2.3-.1.7-.2.9-.9.6-1.9-.2-2.7-.6-1.4-1-2.8-2.2-4.4-3.1-.2 0-.1.2-.3.3.1.6.3 1.3.4 2 .3.7.7 1.4 1.3 2.1l.3.3h-2.8c-.1-.1-.1-.2-.2-.3-.5-.7-.6-1.5-.8-2.3-.4-1.1-.3-2.5.1-3.5.1-.4.4-.7.7-.9l.7-.1c.6.3 1.2.7 1.8 1 .3.3.7.3.9.7.4.2.9.5 1.2.8-.5-1.1-1.3-2.1-1.8-3.1v-.2h2.5v-.2zm4.7 0c-.2 0-.3.1-.5.1s-.5.1-.7 0c-.3 0-.6 0-.9-.1h2.1zm5.7 0s0 .1-.1.1c-.3.1-.6 0-.9-.1h1zm3.4 0c.2.3.4.5.7.7v.1c1.5 1.9 3.4 3.4 5.4 4.8.5.2 1 .4 1.1.9.1.5.3 1 .4 1.5h-2.1c-1-.5-2-1.1-2.8-1.8-1.2-.9-2.3-2.3-3.2-3.5-.7-.9-1.3-1.8-1.9-2.7h2.4zm1.6 0c-.2.1-.5.1-.8 0h.8zm10.1 0c-.2.5-.5 1-.7 1.4l-.3.5c.3 0 .7.1 1 .2 1.1.3 2.2.6 3.2 1.1.3.1.6.3.9.5l1.6.8c.3-.9 1.1-1.6 2-1.9 1.6-.3 3.3.5 4.1 1.8.3.7.3 1.5.2 2.4-.1.4-.3.8-.5 1.2h-6c-.2-.4-.3-.8-.3-1.3-2.3-.3-4.5.3-6.6 1.2-.4-.1-.8-.1-1.2-.3-.4-.1-.7-.1-1.1-.3 0-.3-.1-.8.1-1.1 1.2-1.1 3-1.2 4.6-1.4h1.7c-1.7-.7-3.6-1-5.5-1-.4.2-.5-.2-.8-.1-.5-.2-.4-.7-.8-.9-.3-.5.3-.8.5-1.3.3-.5.6-1 .9-1.4l3-.1zm9.2 5.3c.2 0 .3.3.3.4.1.4 0 .8-.3 1.1-.3.3-.7.3-1.1.2-.5-.1-.5-.9-1.1-.7-.1-.1-.1-.3-.2-.5.3 0 .7.6 1 .1 0-.2.1-.5.2-.6.3-.2.9-.1 1.2 0zm-12.8-1.3c.1.3.1.5.1.8-.5.2.1.7-.4.8-.3 0-.7.1-1-.1-.4-.1-.4-.6-.6-.9 0-.3.1-.6.2-.8.5-.2 1.3-.3 1.7.2zm-2.2-1.6c.1.3.2.5 0 .8-.2.1-.1.5-.1.7-.1.3-.4.3-.7.4-.5 0-.9-.3-1.1-.8-.2-.2-.1-.5-.1-.7.1-.5.7-.7 1.2-.7.3.1.7.1.8.3zm-9.2.1c.4.6.6 1.3.5 2-.1.1-.2.4-.5.4-.2 0-.4-.3-.6-.1.1.2 0 .6-.2.8-.6.4-1.3.4-2 .1-.6-.4-1.2-1-1.2-1.9 0-.9.9-1.6 1.6-1.9.9-.2 1.8 0 2.4.6zm7-2c0 .2.2.2.2.4.2.1.1.3.1.4l-.3.3c0 .2-.1.5-.3.6-.3.2-.6.1-.9 0-.4-.3-.8-.6-.8-1.1.1 0 0-.1.1-.2.2-.4.6-.6.9-.7.4-.1.8 0 1 .3z" fill-rule="evenodd" clip-rule="evenodd"/><path d="M62.1 18.1c.2-.2.4-.5.7-.6.7-.4 1.2.2 1.8.6h-2.5zm19 0c-.4-.1-.7-.3-1.1-.4-.1-.1-.2-.2-.4-.2-1.8-1.3-2.4-3.1-3.1-5-.4-.9-1.4-1.2-2.2-1.7-.2-.2-.1-.6 0-.8 1.2-1.1 3-1.3 4.5-.7 1.1.5 2.1 1.7 2.6 2.8.6 1.2 1.1 2.6 1.8 3.8 0 .1.1.1.1.2.4.5.9.9 1.4 1.4.1.1 0 .3 0 .4-.1.1-.2.2-.4.3l-3.2-.1zm4.6 0c0-.2.2-.3 0-.5-.3-.3-.6-.6-.5-1.1.1-.6.4-1.2 1-1.4 1.5-.4 2.5.5 3.9.7.4.1.8 0 1.2.2 1.2.1 2.2-.3 3.4-.3h.3c1.1 0 2.1.3 3 .7.3.4.1.8 0 1.2 0 .2.2.4.2.6h-1-.1c-1.5-.7-3-.2-4.6 0h-2.2c-.6-.1-1.2-.3-1.8-.4-.2-.1-.5-.2-.7.1v.3l-2.1-.1zm13.5 0c-.3-.6-.6-1.1-.9-1.7-.2-.6.6-.7.8-1.2.2-.3.7-.1.8.2 0 .1.1.2.2.4.5.8 1 1.6 1.5 2.3h-2.4zm3.4 0c-.1 0-.3-.1-.4-.2-.3-.3-.5-.7-.3-1.2.1-.5.6-.6 1-.7.3 0 .5.1.7.2.4.4 0 .9.1 1.3 0 .2-.1.4-.3.5-.1 0-.1 0-.2.1h-.6zm8 0c.5-.9.9-1.8 1.2-2.7-.5-.1-1-.1-1.4 0-1.2.1-2.4.4-3.6.6-.5 0-.5-.6-.9-.7-.2-.2-.7.1-.8-.3-.1-1.7 0-3.3-.6-4.8-.1-.6-.3-1.1-.6-1.6l-.1-.1c0 .7.1 1.5 0 2.1v.7c-.1.4 0 .8-.2 1.2-.1 1.1-.2 2.2-.9 3.1-.5.2-1.1.2-1.6.2-.3-.1-.5-.5-.8-.7 0-.1-.2-.3-.1-.5.7-1.4 1.1-2.9 1.4-4.4.2-1.2.4-2.5.3-3.7-1.1-.4-2-1.4-2-2.7 0-1.1.4-2.2 1.3-2.9 1-1.1 2.6-1 3.9-.6l1.2.9c.4.8.9 1.8.5 2.7-.2.7-.6 1.4-1.1 2-.4.1-.5.5-.8.5.1.2.1.4.3.5.2.7.6 1.2.7 2 .2.6.4 1.3.5 1.9-.1.2 0 .4.1.6.1.5 0 1.3.2 1.9 1-.2 2.2-.4 3.2-.4.2 0 .5-.1.7 0 .8 0 1.6.1 2.4.2 0-.5 0-1.1.2-1.6.3-.6.6-1.2 1.2-1.6 1.1-.7 2.4-.7 3.5-.1.7.5 1.5 1 1.8 1.7.4.8.4 1.6.3 2.4-.4.9-.9 2-2 2.3-1.1.4-2.5.4-3.3-.4-.1-.2-.3-.2-.4-.4-.1.5-.2 1-.5 1.5-.2.4-.4.9-.6 1.3l-2.6-.1zm6.7-4.9c.1.5-.1.9-.5 1.1-.8.3-1.3-.7-2-.4-.2-.1-.4-.4-.6-.5 0 0 0-.1.1-.1.3 0 .6.3.8.1 0-.4.1-.9.5-1.1.3 0 .7-.3.9.1.5.1.6.5.8.8zm-37.4-.4c.4.8.6 1.7 1 2.4.1.2.2.5.4.7.1.2.3.5.5.7-1.1-.2-2-1.4-2.5-2.4s-.6-2.2-1.5-3c0-.1.2-.2.3-.2.7.3 1.3 1 1.8 1.8zM105 2.9c.2.3.2.8 0 1.1-.3.3-.7.4-1 .4-.3.1-.3.4-.6.5-.1-.4-.7-.4-1-.7-.2-.6.1-1.4.6-1.8.7-.3 1.6-.1 2 .5z" fill-rule="evenodd" clip-rule="evenodd"/><path d="M4.5 152.9h1.8v-11.1h3.9v-1.6H.5v1.6h4v11.1zM18.8 143.6h-1.7v4.3c0 2.3-.9 3.8-2.8 3.8-1.5-.1-2-1.1-2-3.3v-4.8h-1.7v5.5c0 2.5 1.1 4 3.5 4 1.3 0 2.5-.6 3-1.7v1.5h1.7v-9.3zM21.8 152.9h1.7v-4.2c0-2.3 1-3.8 2.5-3.8.3 0 .6 0 .9.2v-1.5c-.4-.1-.6-.1-1.1-.1-1 0-2 .7-2.4 1.7v-1.4h-1.6v9.1zM28.9 152.9h1.7v-4.3c0-2.3.9-3.8 2.8-3.8 1.5.1 2 1.1 2 3.3v4.8h1.7v-5.5c0-2.5-1.1-4-3.5-4-1.3 0-2.5.6-3 1.7v-1.5h-1.7v9.3z"/><path d="M48.3 143.6h-1.6v1.4c-.5-1-1.4-1.6-3.1-1.6-2.8 0-4.1 2.5-4.1 4.9 0 2.4 1.3 4.6 4 4.6 1.2 0 2.4-.5 3.1-1.4v.9c0 2-1.1 3.2-2.9 3.2-1.3 0-2-.2-3.3-.8l-.2 1.6c1.5.5 2.3.6 3.3.6 3.3 0 4.8-1.6 4.8-4.4v-9zm-4.4 7.9c-1.6 0-2.6-1.5-2.6-3.3 0-1.6.9-3.5 2.6-3.5 1.8 0 2.7 1.7 2.7 3.6 0 1.8-1.1 3.2-2.7 3.2zM58.5 150.8c-.4.3-1.7.9-2.9.9-1.6 0-3.1-1.3-3.1-3.1h6.6c0-3-1-5.2-4.1-5.2-2.6 0-4.3 1.9-4.3 4.7 0 3 1.5 5 4.8 5 1.5 0 2.3-.4 2.9-.6v-1.7h.1zm-6-3.4c.1-1.2.8-2.6 2.5-2.6 1.5 0 2.3 1.2 2.3 2.6h-4.8z" fill-rule="evenodd" clip-rule="evenodd"/><path d="M61.5 152.9h1.7v-4.7c0-1.7.7-3.4 2.4-3.4 1.4 0 1.7 1.4 1.7 2.6v5.5H69v-4.7c0-1.7.7-3.4 2.4-3.4 1.4 0 1.7 1.4 1.7 2.6v5.5h1.7V147c0-2-.9-3.5-3.2-3.5-.8 0-2.2.5-2.9 1.8-.5-1.3-1.6-1.8-2.6-1.8-1.4 0-2.3.5-2.9 1.6v-1.3h-1.6v9.1h-.1z"/><path d="M85 150.8c-.4.3-1.7.9-2.9.9-1.6 0-3.1-1.3-3.1-3.1h6.6c0-3-1-5.2-4.1-5.2-2.6 0-4.3 1.9-4.3 4.7 0 3 1.5 5 4.8 5 1.5 0 2.3-.4 2.9-.6v-1.7h.1zm-6-3.4c.1-1.2.8-2.6 2.5-2.6 1.5 0 2.3 1.2 2.3 2.6H79zM88.3 152.9H90v-9.3h-1.7v9.3zm1.8-13.3h-1.9v1.9h1.9v-1.9z" fill-rule="evenodd" clip-rule="evenodd"/><path d="M93.1 152.9h1.7v-4.3c0-2.3.9-3.8 2.8-3.8 1.5.1 2 1.1 2 3.3v4.8h1.7v-5.5c0-2.5-1.1-4-3.5-4-1.3 0-2.5.6-3 1.7v-1.5h-1.7v9.3z"/><path d="M110.9 152.9h1.6v-13.6h-1.7v5.6c-.5-.9-1.5-1.5-3.1-1.5-2.7 0-4 2.2-4 4.7s1.2 5 4 5c1.7 0 2.7-.8 3.2-1.5v1.3zm-5.4-4.7c0-1.7.7-3.4 2.5-3.4s2.7 1.8 2.7 3.5c0 1.5-.8 3.5-2.7 3.5-1.7 0-2.5-2.1-2.5-3.6zM122.6 150.8c-.4.3-1.7.9-2.9.9-1.6 0-3.1-1.3-3.1-3.1h6.6c0-3-1-5.2-4.1-5.2-2.6 0-4.3 1.9-4.3 4.7 0 3 1.5 5 4.8 5 1.5 0 2.3-.4 2.9-.6v-1.7h.1zm-5.9-3.4c.1-1.2.8-2.6 2.5-2.6 1.5 0 2.3 1.2 2.3 2.6h-4.8zM131.4 152.9h3.4c2.6 0 4.8-.7 4.8-3.4 0-1.8-1.2-2.9-2.9-3.1 1.6-.4 2.6-1.3 2.6-3 0-2.3-1.8-3.2-4.5-3.2h-3.4v12.7zm1.8-5.8h1.2c1.6 0 3.3.3 3.3 2.2 0 1.7-1.5 2.1-3.1 2.1h-1.4v-4.3zm0-5.4h1.9c1.1 0 2.3.4 2.3 1.9 0 1.9-1.5 2-3.3 2h-1v-3.9h.1zM142.8 152.9h1.7v-9.3h-1.7v9.3zm1.8-13.3h-1.9v1.9h1.9v-1.9zM147.6 152.9h1.6v-1.3c.5.7 1.5 1.5 3.2 1.5 2.8 0 4-2.5 4-5s-1.3-4.7-4-4.7c-1.6 0-2.5.6-3.1 1.5v-5.6h-1.7v13.6zm7-4.7c0 1.5-.7 3.5-2.6 3.5-1.9 0-2.7-1.9-2.7-3.5 0-1.7.9-3.5 2.7-3.5 1.9.1 2.7 1.9 2.6 3.5zM165.9 150.8c-.4.3-1.7.9-2.9.9-1.6 0-3.1-1.3-3.1-3.1h6.6c0-3-1-5.2-4.1-5.2-2.6 0-4.3 1.9-4.3 4.7 0 3 1.5 5 4.8 5 1.5 0 2.3-.4 2.9-.6v-1.7h.1zm-5.9-3.4c.1-1.2.8-2.6 2.5-2.6 1.5 0 2.3 1.2 2.3 2.6H160z" fill-rule="evenodd" clip-rule="evenodd"/><path d="M169 152.9h1.7v-4.2c0-2.3 1-3.8 2.5-3.8.3 0 .6 0 .9.2v-1.5c-.4-.1-.6-.1-1.1-.1-1 0-2 .7-2.4 1.7v-1.4H169v9.1z"/><path d="M176.7 145.8c.7-.6 1.7-.9 2.7-.9 1.7 0 2.3.8 2.3 2.4h-1.8c-1.8 0-4.3.7-4.3 3.1 0 2 1.4 2.9 3.4 2.9 1.6 0 2.5-.9 2.9-1.4v1.2h1.6c0-.3-.1-.8-.1-1.8v-3.8c0-2.5-1.1-3.8-3.7-3.8-1.2 0-2.2.4-3.1.9l.1 1.2zm5 3.5c0 1.4-.9 2.4-2.6 2.4-.8 0-1.7-.5-1.7-1.5 0-1.6 2.3-1.8 3.2-1.8h1.1v.9z" fill-rule="evenodd" clip-rule="evenodd"/><path d="M192.4 143.8c-.5-.2-1.4-.4-2.1-.4-2.8 0-4.7 2-4.7 4.9 0 2.7 1.9 4.9 4.7 4.9.6 0 1.4-.1 2.1-.4l-.1-1.5c-.5.3-1.3.5-1.8.5-2.2 0-3.1-1.8-3.1-3.5 0-1.8 1.1-3.5 3-3.5.5 0 1.2.1 1.9.4l.1-1.4zM194.5 152.9h1.7v-4.3c0-2.3.9-3.8 2.8-3.8 1.5.1 2 1.1 2 3.3v4.8h1.7v-5.5c0-2.5-1.1-4-3.5-4-1.3 0-2.4.6-3 1.5v-5.7h-1.7v13.7zM214.7 152.9h1.9v-12.7h-1.7l-3.1 2.6 1 1.2 1.9-1.7v10.6z"/><path d="M224 153.1c2.4 0 4.4-1.1 4.4-3.6 0-1.7-1.1-2.8-2.7-3.4 1.7-.9 2.3-1.9 2.3-3.3s-1.4-2.9-3.9-2.9c-2.6 0-4.1 1.4-4.1 3 0 1.2.5 2.5 2.4 3.2-1.5.5-2.7 1.7-2.7 3.3 0 2.5 2.2 3.7 4.3 3.7zm2.5-3.5c0 1.3-1.1 2-2.3 2-1.3 0-2.6-.8-2.6-2.2 0-1.5 1.1-1.8 2.1-2.6 1.4.8 2.9 1.1 2.8 2.8zm-4.7-6.3c0-1.2 1.3-1.8 2.1-1.8.9 0 2.1.4 2.1 1.6 0 .9-.2 1.4-1.7 2.5-1.6-.8-2.5-1.4-2.5-2.3zM235.9 148.5h-4l4-6.8v6.8zm0 4.4h1.8V150h1.6v-1.5h-1.6v-8.3h-2.6l-5.1 8.3v1.5h5.9v2.9z" fill-rule="evenodd" clip-rule="evenodd"/><path d="M248.7 140.2h-8v1.5h6.2l-4.9 11.2h2l4.7-11.2v-1.5z"/><path d="M262.6 150.8c-.4.3-1.7.9-2.9.9-1.6 0-3.1-1.3-3.1-3.1h6.6c0-3-1-5.2-4.1-5.2-2.6 0-4.3 1.9-4.3 4.7 0 3 1.5 5 4.8 5 1.5 0 2.3-.4 2.9-.6v-1.7h.1zm-5.9-3.4c.1-1.2.8-2.6 2.5-2.6 1.5 0 2.3 1.2 2.3 2.6h-4.8z" fill-rule="evenodd" clip-rule="evenodd"/><path d="M265.8 152.9h2v-2h-2v2zM281.4 140.2h-1.9l-4 11.1h-.1l-3.9-11.1h-2l4.8 12.7h2.2l4.9-12.7zM281.4 152.9h2.1v-2h-2.1v2z"/><path fill="#004f9f" d="M0 113v14.8h14.8V113H0zM20 113v14.8h14.8V113H20zM40 113v14.8h14.8V113H40zM154.8 127.7h18.6V49.6H200V35h-71.8v14.6h26.6v78.1zM280 37.2c-8-2.4-16.5-3.9-27.2-3.9-31.5 0-50.9 17.8-50.9 49.6 0 31.4 20.9 46.4 50.9 46.4 10 0 20.2-2.1 30-4.8v-50h-37.5v14.6H265v24.2c-3.2.8-7.2 1.3-12.2 1.3-19.8 0-31.5-14.2-31.5-33.1 0-19 12-33.6 33.6-33.6 7.4 0 16.7 1.6 23.9 4.9l1.2-15.6z"/></svg>