<?xml version="1.0" encoding="utf-8"?>
<!-- Generator: Adobe Illustrator 21.0.0, SVG Export Plug-In . SVG Version: 6.00 Build 0)  -->
<svg version="1.1" id="Ebene_1" xmlns="http://www.w3.org/2000/svg" xmlns:xlink="http://www.w3.org/1999/xlink" x="0px" y="0px"
	 width="538.2px" height="156.8px" viewBox="0 0 538.2 156.8" style="enable-background:new 0 0 538.2 156.8;" xml:space="preserve"
	>
<style type="text/css">
	.st0{fill:#004F9F;}
	.st1{fill:#FFCC00;}
</style>
<g>
	<g>
		<path class="st0" d="M38.8,40.3H0V19h104.8v21.3H66v114.1H38.8V40.3z"/>
		<path class="st0" d="M222.1,45.2C211.6,40.3,198,38,187.2,38c-31.6,0-49.1,21.4-49.1,49.1c0,27.6,17.1,48.3,46,48.3
			c7.4,0,13.2-0.8,17.9-1.9V98.2h-28.7V76.8H228v73c-14.4,3.9-29.3,7-43.9,7c-43.9,0-74.3-21.9-74.3-67.7
			c0-46.4,28.3-72.4,74.3-72.4c15.7,0,28.1,2.1,39.8,5.6L222.1,45.2z"/>
	</g>
	<g>
		<path class="st0" d="M283.8,90.4l-11.4,2.3c-1.4,0.9-2.8,1.6-4.5,1.7c-3.1,0.2-7.1-1.4-5.9-9.2c0.5-3.8,4-8.7,7.6-8.9
			c1.9-0.1,3.4,0.4,4.6,0.7l11.8-2.6c5.2-36,14.1-54.3,39.5-55.9c12-0.8,26.2,8.3,25.2,15.2c-0.7,4-4.4,9.9-10.6,10.3
			c-5.3,0.3-8.1-2.9-7.6-5.9c-1.1-2.3-5.3-4.1-10.3-3.8c-6.9,0.4-11,8.5-15.3,35.8l25.1-5.2c1.6-0.7,3.2-2.4,5.6-2.6
			c5.5-0.3,8.4,3.3,7.7,7.7c-0.8,5.9-4.1,10.5-8.4,10.7c-1.9,0.1-3.9-0.4-4.6-0.7l-27.5,5.7l-8.2,56c0.8,1.7,1.4,3.7,1.1,5.5
			c-0.6,5.2-6,8-12.9,8.4c-8.4,0.5-11.6-1.9-10.8-7.5c0.2-1.2,1-2.7,1.9-3.9L283.8,90.4z"/>
	</g>
	<g>
		<path class="st0" d="M378,77.2l-8.4,57.8c1,0.7,2.4,3.1,2,5.5c-1,6.9-10.6,10.5-17.6,10.9c-5.7,0.4-9.6-3-8.5-8.9
			c0.5-3.6,2.5-6,3.6-7l8.2-56.2c-1.3-1.1-1.6-3.3-1.3-5.1c0.8-5.7,2.1-11.7,15.8-12.6c5-0.3,10.1,4.6,9.4,8.8
			C380.9,73.8,378.8,75.9,378,77.2z M387.3,31.6c-1.6,11.9-9.1,19.2-16.1,19.6c-7.2,0.5-9.3-3.4-8.5-9.1
			c1.5-10.3,7.5-18.7,16.1-19.2C385.1,22.5,388.2,25.7,387.3,31.6z"/>
	</g>
	<g>
		<path class="st0" d="M419.4,44.6c-0.5-1-1.1-1.7-0.6-5c0.9-5.5,7-7.4,15.1-8c4.5-0.3,9.9,0.2,9.2,5.4c-0.4,1.6-1.2,3.5-3,5.2
			l-1.6,12.3l28.2-5.8c1.4-1.1,2.8-1.8,4.4-1.9c5.3-0.3,7.7,3.5,7,7.6c-1,6.5-4.4,9.9-9,10.2c-1.4,0.1-3.1,0-3.4-0.6l-29.6,6.1
			l-8.1,54.6c-0.5,3.2,0.4,5.6,3,5.4c4.5-0.3,22.9-10.3,33.5-21.1c0.7-4.4,4.3-8.1,9.6-8.4c8.9-0.6,10.8,3.3,9.9,9
			c-1.2,7.9-43,37.9-62.6,39.2c-11,0.7-16.5-6.2-14.9-15.9l8.6-58.4l-14.7,2.9c-1.4,1.1-2.5,1.8-4.7,2.1c-5.3,0.1-8.3-2.9-7.5-8.9
			c0.6-5,5.4-9,10.2-9.3c1.4-0.1,2.9,0.4,3.4,1l15.7-3.2L419.4,44.6z"/>
	</g>
	<g>
		<path class="st0" d="M494.6,133.5c1.2-7.7,9.1-16.2,17.2-16.7c6.2-0.4,8.6,2.9,7.2,11.6c-1.1,8.5-4.9,13.5-16.9,14.3
			C497.4,142.9,494,138.3,494.6,133.5z M524,89c1.5,1.3,1.5,4.5,1,8.3c-0.7,4.6-9.5,9.6-17.4,10.1c-7.2,0.5-9-5.6-8.3-9.5
			c0.3-3,2-5.9,3.6-7.4l9.9-68.1c-1.3-1.9-2.4-4.1-1.9-7.3c1-6.7,4.9-10.1,18.5-11c6.9-0.4,9.5,1.6,8.7,8.3c-0.7,4-2.7,6.4-4.1,7.9
			L524,89z"/>
	</g>
	<g>
		<path class="st1" d="M279.6,86.2l-11.4,2.3c-1.4,0.9-2.8,1.6-4.5,1.7c-3.1,0.2-7.1-1.4-5.9-9.2c0.5-3.8,4-8.7,7.6-8.9
			c1.9-0.1,3.4,0.4,4.6,0.7l11.8-2.6c5.2-36,14.1-54.3,39.5-55.9c12-0.8,26.2,8.3,25.2,15.2c-0.7,4-4.4,9.9-10.6,10.3
			c-5.3,0.3-8.1-2.9-7.6-5.9c-1.1-2.3-5.3-4.1-10.3-3.8c-6.9,0.4-11,8.5-15.3,35.8l25.1-5.2c1.6-0.7,3.2-2.4,5.6-2.6
			c5.5-0.3,8.4,3.3,7.7,7.7c-0.8,5.9-4.1,10.5-8.4,10.7c-1.9,0.1-3.9-0.4-4.6-0.7l-27.5,5.7l-8.2,56c0.8,1.7,1.4,3.7,1.1,5.5
			c-0.6,5.2-6,8-12.9,8.4c-8.4,0.5-11.6-1.9-10.8-7.5c0.2-1.2,1-2.7,1.9-3.9L279.6,86.2z"/>
	</g>
	<g>
		<path class="st1" d="M373.8,73.1l-8.4,57.8c1,0.7,2.4,3.1,2,5.5c-1,6.9-10.6,10.5-17.6,10.9c-5.7,0.4-9.6-3-8.5-8.9
			c0.5-3.6,2.5-6,3.6-7l8.2-56.2c-1.3-1.1-1.6-3.3-1.3-5.1c0.8-5.7,2.1-11.7,15.8-12.6c5-0.3,10.1,4.6,9.4,8.8
			C376.7,69.7,374.7,71.8,373.8,73.1z M383.2,27.4c-1.6,11.9-9.1,19.2-16.1,19.6c-7.2,0.5-9.3-3.4-8.5-9.1
			c1.5-10.3,7.5-18.7,16.1-19.2C380.9,18.4,384,21.6,383.2,27.4z"/>
	</g>
	<g>
		<path class="st1" d="M415.2,40.4c-0.5-1-1.1-1.7-0.6-5c0.9-5.5,7-7.4,15.1-8c4.5-0.3,9.9,0.2,9.2,5.4c-0.4,1.6-1.2,3.5-3,5.2
			l-1.6,12.3l28.2-5.8c1.4-1.1,2.8-1.8,4.4-1.9c5.3-0.3,7.7,3.5,7,7.6c-1,6.5-4.4,9.9-9,10.2c-1.4,0.1-3.1,0-3.4-0.6l-29.6,6.1
			l-8.1,54.6c-0.5,3.2,0.4,5.6,3,5.4c4.5-0.3,22.9-10.3,33.5-21.1c0.7-4.4,4.3-8.1,9.6-8.4c8.9-0.6,10.8,3.3,9.9,9
			c-1.2,7.9-43,37.9-62.6,39.2c-11,0.7-16.5-6.2-14.9-15.9l8.6-58.4l-14.7,2.9c-1.4,1.1-2.5,1.8-4.7,2.1c-5.3,0.1-8.3-2.9-7.5-8.9
			c0.6-5,5.4-9,10.2-9.3c1.4-0.1,2.9,0.4,3.4,1l15.6-3.2L415.2,40.4z"/>
	</g>
	<g>
		<path class="st1" d="M490.5,129.3c1.2-7.7,9.1-16.2,17.2-16.7c6.2-0.4,8.6,2.9,7.2,11.6c-1.1,8.5-4.9,13.5-16.9,14.3
			C493.3,138.8,489.9,134.2,490.5,129.3z M519.9,84.9c1.5,1.3,1.5,4.5,1,8.3c-0.7,4.6-9.5,9.6-17.4,10.1c-7.2,0.5-9-5.6-8.3-9.5
			c0.3-3,2-5.9,3.6-7.4l9.9-68.1c-1.3-1.9-2.4-4.1-1.9-7.3c1-6.7,4.9-10.1,18.5-11c6.9-0.4,9.5,1.6,8.7,8.3c-0.7,4-2.7,6.4-4.1,7.9
			L519.9,84.9z"/>
	</g>
</g>
</svg>
