<?xml version="1.0" encoding="utf-8"?>
<!-- Generator: Adobe Illustrator 20.1.0, SVG Export Plug-In . SVG Version: 6.00 Build 0)  -->
<svg version="1.1" id="Ebene_1" xmlns="http://www.w3.org/2000/svg" xmlns:xlink="http://www.w3.org/1999/xlink" x="0px" y="0px"
	 width="283.5px" height="157px" viewBox="0 0 283.5 157" style="enable-background:new 0 0 283.5 157;" xml:space="preserve">
<g>
	<path style="fill-rule:evenodd;clip-rule:evenodd;fill:#FFCC00;" d="M87.1,119.9c-0.5,0.2-0.9,0.6-1.2,1c-0.8-0.3-1.7-0.1-2.5-0.1
		c-0.2,0-0.1-0.3-0.2-0.4c0-0.2,0.1-0.3,0.2-0.5L87.1,119.9L87.1,119.9z M93.6,119.9c0.2,0.2,0.5,0.4,0.7,0.6
		c0.2,0.1,0.4,0.2,0.7,0.1c0.2-0.1,0.3-0.4,0.4-0.5c0.4-0.2,0.9-0.2,1.4-0.2l10.4,0c-0.2,0.3-0.4,0.6-0.6,1
		c-0.1,0.4-0.3,0.9-0.3,1.4c0,0.7,0,1.6,0.4,2.1c0.2,0.5,0.8,0.7,0.5,1.3c-0.1,0.5-0.1,1.1-0.6,1.3c-0.7,0.3-1.8,0.5-2.6,0.1
		c-1.3-0.3-2.8-0.7-4.3-0.7c-1-0.1-1.9,0-2.9,0.2c-0.5,0.1-0.9,0.3-1.4,0.4c-0.9,0.1-1.7,0.5-2.6,0.9c-0.2,0-0.5-0.1-0.7-0.3
		c-0.9-0.6-1.9-0.9-2.9-1.4c-0.1-0.2-0.1-0.4,0-0.5c0.2-0.4,0.7-0.5,0.9-0.9c-1-1-2.5-1.1-3.9-1c-0.8,0.1-1.5,0.6-2.2,1
		c-0.4,0.2-0.7-0.1-1-0.1c-0.8-0.2-1.9-0.2-2.3-1c-0.1-0.5,0.1-1,0.6-1.4c0.9-0.7,2-0.8,3.1-0.9c2.8-0.1,5.4,0.9,7.7,2.2
		c0.2,0,0.2-0.2,0.4-0.3c-0.2-0.2-0.5-0.3-0.7-0.6c0-0.2,0.2-0.4,0.4-0.4c0.3-0.1,0.6-0.2,0.9-0.3c-1.1-1-2.4-1.7-3.8-2L93.6,119.9
		L93.6,119.9z"/>
	<path style="fill-rule:evenodd;clip-rule:evenodd;fill:#FFCC00;" d="M103.9,111.9c0.1,0.1,0.1,0.1,0.2,0.2l0,0.2
		c-0.4,0.5-0.8,0.9-0.9,1.5c-0.2,0.4-0.6,0.2-0.9,0.1c-0.9-0.5-1.7-1.2-2.3-2.1L103.9,111.9L103.9,111.9z M112.6,111.9
		c-0.1,0.2-0.2,0.4-0.2,0.6c-0.5,0.7-0.7,1.5-1.2,2.1c0,0.2-0.2,0.3-0.3,0.5c-0.5,0.8-1.3,1.6-1.8,2.4c-0.2,0.2-0.2,0.5-0.5,0.7l0,0
		c-0.4,0.5-0.9,1.1-1.3,1.7l-10.4,0c0.1,0,0.2,0,0.3-0.1c-0.3-0.7-1-1.2-1.6-1.8c-0.7-0.6-1.6-0.9-2.5-0.9c-0.7,0-1.3,0.2-1.9,0.5
		c-0.5-0.1-0.8-0.3-1.2-0.5c-0.6-0.1-1.1-0.2-1.6-0.4c-0.2-0.2,0.1-0.3,0.1-0.4c0.4-0.4,0.7-0.9,1.3-1.1c0.8-0.6,1.9-0.6,2.9-0.5
		c1.2,0.2,2.4,0.6,3.4,1.2c0.1,0.1,0.4,0.2,0.5,0.3c0.9,0.6,1.7,1.5,2.4,2.3c0.2,0.7,1.1,0.4,1.6,0.6c0.2-0.5,0.6-0.8,1.1-1
		c0.1-0.6,0.4-1.2,0.7-1.7l0,0c0.3-0.6,0.5-1.3,0.9-1.8c-0.1-0.1,0-0.3,0.1-0.4c0.3-0.3,0.6-0.2,1-0.2c0.2,0.1,0.4,0.1,0.6,0.2
		c0.2-0.7,0.6-1.3,1-1.9c0-0.2-0.1-0.3-0.2-0.4L112.6,111.9L112.6,111.9z M135,111.9c0.1,0.4,0,0.8,0.1,1.1c0.1,0.4-0.1,0.8,0.1,1.2
		c0,0.6-0.1,1.3,0,2l0,0.1c-1.1,0.3-2.2,0.4-3.3,0c-0.2-0.3,0.1-0.9-0.4-0.9c-0.7-0.2-1.4-0.3-2-0.6c-0.3-0.1-0.2-0.5-0.3-0.7
		c-0.1-0.7-0.3-1.5-0.5-2.2L135,111.9L135,111.9z M83.4,119.9c0.3-0.7,0.8-1.3,1.4-1.7c1.6-1.1,3.9-0.7,5.5-0.1
		c1.2,0.3,2.2,1,3.3,1.8l-4.2,0c-0.6-0.1-1.3-0.2-2-0.1c-0.1,0-0.2,0.1-0.3,0.1L83.4,119.9L83.4,119.9z"/>
	<path style="fill-rule:evenodd;clip-rule:evenodd;fill:#FFCC00;" d="M76.5,87.9C76.5,87.9,76.5,87.9,76.5,87.9
		c-0.2,0.8-0.2,1.6-0.4,2.3c0,0.5-0.1,1-0.1,1.5c0.1,0.2,0,0.3,0,0.5l0,0.9c-0.5,0-1-0.1-1.5,0.2c-0.4-0.4-0.3-1.1-0.3-1.6
		c0-1.2,0.1-2.5,0.3-3.7L76.5,87.9L76.5,87.9z M91.8,87.9c-0.1,0.3-0.3,0.7-0.4,1c-0.2,0.4-0.3,0.9-0.4,1.3
		c-0.1,0.6-0.2,1.2-0.3,1.9c-0.2,0,0.1,0.2-0.1,0.2c-0.6-0.1-1.4-0.1-1.7-0.7c-0.1-0.2-0.3-0.3-0.5-0.4c-1.5-0.3-3-0.9-4-2.2
		c-0.8-0.5-1.8-0.5-2.7-0.6c-0.1,0-0.1,0.2-0.1,0.3c0,0.6,0.5,1.1,1,1.5c0.2,0.1,0.5,0.3,0.6,0.6c0,0.5,0,1,0.1,1.5
		c-0.4,0.3,0.1,0.6,0.2,0.8c0.3,1.1,0.6,2.3,0.3,3.4c-0.1,0.6-0.3,1.2-0.4,1.8c-0.4,1.7-0.9,3.4-1.3,5.1c0,1.1-0.2,2.3,0.4,3.2
		c0.2,0.4,0.6,0.8,0.7,1.3c0,0.2,0.2,0.4,0.1,0.6c-0.2,0.3-0.4,0.7-0.5,1.1c-0.2,0.1-0.3-0.2-0.5,0c-1.5,0.7-3.1,0-4.7-0.1
		c-1.1-0.1-2.2-0.4-3.2-0.3c-1.5-0.1-3.1,0.1-4.5,0.7c-0.4,0-0.7,0.3-1,0.4c-0.4,0.2-0.9,0.4-1.4,0.2c-0.2-0.4-0.6-0.5-0.9-0.7
		c-0.8-0.3-1.5-0.7-2.4-0.8c-0.1-0.1-0.2-0.3-0.2-0.5c0.5-0.4,1-0.5,1.5-0.7c-0.1-0.2-0.4-0.3-0.6-0.4c-2-1-4.6-1.1-6.5,0.1
		c-0.4,0-0.7-0.2-1.1-0.3c-0.2-0.1-0.5-0.2-0.6-0.5c-0.1-0.4-0.1-0.8,0.1-1.2c0.4-0.5,1-0.6,1.5-0.9c1.2-0.3,2.3-0.3,3.6,0
		c0.4,0.2,0.9,0.2,1.3,0.4c1,0.4,1.9,0.8,2.8,1.4c0.4,0.1,0.7-0.2,1.1-0.2c0.1,0,0.2-0.1,0.4-0.2c-0.1-0.2-0.4-0.2-0.5-0.4
		c0.2-0.4,0.7-0.4,1.1-0.6c-1.1-1.5-3.1-2-4.9-2c-0.7,0.2-1.5,0.3-2.2,0.8c-0.7-0.2-1.4,0-2.1-0.2c-0.3-0.3-0.3-0.8-0.2-1.2
		c0.3-0.8,1.2-1.2,1.9-1.6c3-0.8,5.9,0.6,8.2,2.5c0.1,0,0.2,0.1,0.3,0.2c0.2,0,0.4,0.1,0.6,0c0.1-0.1,0.2-0.3,0.2-0.4
		c-0.1-0.2-0.4-0.2-0.5-0.4c0.5-0.5,1.2-0.5,1.9-0.6c-1.5-1.4-3.6-2.6-5.6-1.8c-0.4,0.1-0.7-0.3-1.1-0.3c-0.2-0.1-0.4-0.1-0.6-0.2
		c-0.3-0.2-0.6,0-0.9-0.3c0.1-1,1.1-1.4,1.9-1.6c1.3-0.3,2.7-0.3,3.9,0.3c0.4,0.3,0.9,0.3,1.3,0.7c0.6,0.3,1.1,0.8,1.6,1.2
		c0.1,0.2,0.3,0.3,0.6,0.2c0.4,0,0.8,0,1.1,0c0-0.2-0.3-0.3-0.2-0.5c0.5-0.6,1.4-0.7,1.6-1.6c-0.2-0.7-0.6-1.4-0.8-2.1
		c0.7-0.5,1.7-0.2,2.5-0.2c0.2-0.2,0.1-0.6,0.1-0.7c0-0.4-0.1-0.8-0.2-1.2c0-1.6-0.1-3.1,0.3-4.7c0-0.5,0.2-0.9,0.3-1.3L91.8,87.9
		L91.8,87.9z M96.2,87.9c-0.3,0.6-0.5,1.3-0.6,2c-0.6,2.3-0.7,4.8-0.8,7.1c0,0.2,0,0.4,0,0.6c-0.4,0.1-0.9,0.1-1.2,0.1
		c-0.3,0.1-0.7,0.2-0.9,0.1c-0.5-1-0.2-2.1-0.3-3.2c0-2.1,0.3-4,0.8-5.9c0-0.2,0.1-0.5,0.2-0.7L96.2,87.9L96.2,87.9z M110.3,87.9
		c0,0,0,0.1,0,0.1c-0.3,0.8-0.4,1.6-0.6,2.4c0,0.4-0.2,0.8-0.2,1.3c-0.1,0.7-0.2,1.4-0.3,2.2c0.1,0.5-0.2,0.9-0.1,1.4
		c-0.1,0.2-0.1,0.4-0.1,0.6c-0.2,1.2-0.2,2.5-0.2,3.8c0,0.6,0.2,1.2,0.2,1.8c-0.1,0.1,0.1,0.3,0.1,0.5c0.2,0.7,0.5,1.6,0.9,2.2
		c0.4,0.9,1.2,1.3,1.9,2c0.1,0.1,0,0.4,0.1,0.5c0,0,0.2,0.2,0.1,0.4c-0.1,0-0.1,0.1,0,0.2c0.4,0.9,1,1.8,0.8,2.8
		c0,0.7-0.2,1.4-0.4,2h-7.1c-0.2-0.2-0.4-0.3-0.5-0.5c-0.7-0.8-1.3-1.8-1.8-2.7c-1.1-2-1-4.4-1.3-6.7c0-0.5,0-1.1,0.1-1.5
		c0-0.2,0.1-0.5,0-0.6c-0.5-0.1-1-0.2-1.5-0.1c-0.1,0.4-0.1,0.7-0.1,1.2c-0.1,1.9,0,3.8,0.6,5.5c0.2,1,0.7,2,1.1,2.9
		c0.4,0.9,1,1.8,1.8,2.6l-3.8,0c-1-1.2-1.6-2.7-2.1-4.1c-0.7-2-1.1-4.1-1.1-6.3c0-0.5,0.2-0.9,0.1-1.3c-0.2,0-0.3,0.2-0.5,0.1
		c-0.1,0.1-0.3,0-0.4,0.1c-0.6-0.1-0.3-0.8-0.4-1.3c-0.2-2.5-0.1-5,0.6-7.4c0.3-1.3,0.8-2.6,1.4-3.8L110.3,87.9L110.3,87.9z
		 M121.4,87.9c0.4,0.4,0.8,0.7,1.2,1c1,0.9,1.8,2,2.7,2.9c0.2,0.2,0.3,0.4,0.5,0.6c1.5,1.9,2.9,4,4.2,6.1c0.5,0.9,1.1,1.8,1.5,2.7
		c0,0.1,0,0.3,0.2,0.3c0.7,1.4,1.3,2.8,1.9,4.2c0.4,1.1,0.6,2.1,0.9,3.2c0.2,0.8,0.3,1.6,0.5,2.4c0.1,0.2,0.1,0.3,0.1,0.5l-6.3,0
		c-0.9-3.5-2.4-6.7-4-9.9c-1.5-2.4-2.5-5-4.7-7.1c-0.3-0.2-0.6-0.4-0.9-0.3c0.1,1.4,0.7,2.6,1.1,3.9c0.2,0.5,0.4,1,0.6,1.4
		c0.4,1.3,1.3,2.4,1.9,3.5c0.2,0.6,1.2,1.2,0.5,1.8c-0.4,0.4-0.9,0.7-1.3,1c-0.3,0.1-0.5-0.2-0.7-0.4c-0.5-0.6-0.7-1.2-1-1.9
		c-0.6,0-1.2,0.4-1.7,0.7c-0.2,0.1-0.3-0.2-0.4-0.3c-1.1-2.6-2-5.2-2.6-7.9c0-0.1-0.1-0.1-0.1-0.2c-0.4-1.8-0.6-3.7-0.8-5.6
		c-0.1-0.2-0.4-0.1-0.6-0.1c0,0-0.1,0-0.1,0c-0.2-0.9,0.2-1.7,0.6-2.5c0,0,0,0,0-0.1L121.4,87.9L121.4,87.9z"/>
	<path style="fill-rule:evenodd;clip-rule:evenodd;fill:#FFCC00;" d="M99.2,63.9c0.1,0.2,0.2,0.4,0.3,0.7c0.1,0.4,0.4,0.7,0.5,1.1
		c1.1,1.8,2.2,3.6,3.7,5.2c0.4,0.7,1.2,1.1,1.6,1.8c0.5,0.4,1,0.9,1.5,1.3c0.4,0.4,0.9,0.7,1.4,1.2c0.6,0.4,1.1,0.9,1.7,1.4
		c0.4,0.4,0.8,0.8,1.1,1.3c1.1,0.9,1,2.5,0.7,3.8c-0.4,1.7-0.7,3.4-1.3,5c0,0.1,0,0.2-0.1,0.3c0,0.3-0.2,0.7-0.2,1l-12.6,0
		c0-0.1,0.1-0.2,0.1-0.3c-0.1-0.3-0.5-0.3-0.8-0.5c-0.2,0-0.6-0.2-0.6,0.1c-0.1,0.2-0.1,0.4-0.2,0.6l-2.8,0c0.1-0.4,0.2-0.7,0.4-1.1
		c0.4-0.9,0.7-1.8,1.5-2.4c0.4,0,0.6,0.2,1,0.4c0.2-0.3,0.1-0.6,0.2-1c0.1-0.5,0.4-1,0.2-1.4c-0.4,0.1-0.6,0.6-0.9,1
		c-0.4,0-0.9-0.2-1.4-0.2c-0.4-0.1,0-0.5,0-0.8c0-0.1,0.2-0.2,0.1-0.4c-1.6-1.5-2.6-3.3-3.6-5c-0.5-1.1-1.1-2.1-1.5-3.1
		C89.1,73.7,89,74,88.7,74c-0.5-0.1-0.7-0.7-1.1-1.1c-0.7-1-1.2-2-1.8-3.1c-0.8-1.7-1.5-3.5-2.1-5.3c0.1-0.1-0.1-0.2-0.1-0.3
		c0-0.1-0.1-0.2-0.1-0.3L99.2,63.9L99.2,63.9z M74.4,87.9c0.1-0.7,0.3-1.3,0.5-2c-0.2-0.1-0.3-0.3-0.4-0.5c0.1-0.6,1-0.9,1.2-1.4
		c-0.4-0.8-0.4-1.8-0.6-2.6c0.1-0.1,0-0.3,0-0.5c0-0.6,0.2-1.1,0.2-1.6c0.1-0.1,0.1-0.3,0.3-0.4c0.1-0.5,0.4-0.7,0.6-1.2
		c-0.2,0-0.3,0.1-0.5,0.2c-0.3,0.1-0.5,0.3-0.8,0.4c-0.4,0.1-0.7,0-1.1,0c-0.2-0.1-0.6-0.2-0.7-0.5c0.3-0.9,1.3-1.3,2.1-1.7
		c1.1-0.5,2.6-0.7,3.7-0.1c0.4,0.1,0.9,0.2,1.2-0.1c0.5-0.3,0.8-0.8,1.4-0.6c0.2-0.1,0.3,0.1,0.5,0.2c1,1.4,2.3,2.6,3.4,3.8
		c1.4,1.2,3,2.7,4.5,3.9c0.3,0.2,0.5,0.4,0.8,0.6c0.6,0.5,1.2,0.9,1.9,1.4c0.1,0.2,0.1,0.3,0.1,0.5c-0.4,0.8-0.7,1.5-1,2.3l-14.4,0
		c0-0.1,0.1-0.2,0.1-0.4L76.8,87c-0.2,0.2-0.2,0.6-0.3,0.9L74.4,87.9L74.4,87.9z M114.6,87.9c-0.1-0.1-0.3,0-0.4-0.1
		c-0.2-0.1-0.4-0.1-0.5-0.3c0.1-0.1,0-0.4,0.2-0.5c0.3-0.9,1-1.5,1.5-2.4c0.9-0.5,1.7,0.2,2.5,0.6l1.5,0.8c0.7,0.6,1.4,1.2,2.1,1.8
		L114.6,87.9L114.6,87.9z M80,86c0.3,0.3,0.6,0.6,0.9,0.8c0,0.2-0.2,0.3-0.2,0.4c-0.2,0-0.4,0.1-0.6,0c0,0,0-0.1,0-0.1l0,0
		c-0.2-0.3-0.3-0.8-0.4-1.1C79.7,86.1,79.9,86,80,86L80,86z"/>
	<path style="fill-rule:evenodd;clip-rule:evenodd;fill:#FFCC00;" d="M58.1,47.9c0,0,0.1,0,0.1,0c1.7,0.3,2.7,2,3.9,3.2
		c0.5,0.6,1,1.2,1.3,1.8c0.1,0.4,0.6,0.2,0.9,0.3c0.1-0.1,0-0.4,0.2-0.4c0.3,0,0.5,0.3,0.8,0.3c0.2,0.1,0.5,0,0.8,0.1
		c0.2,0.3,0.6,0.6,0.9,0.7c1.4-0.5,2.7-1.3,4.2-1.4c0.5,0,1-0.1,1.5,0.1c1.4,0.7,3.1,0.7,4.6,0.8c0.2,0,0.3,0.2,0.4,0.3
		c-0.1,0.4-0.2,0.7-0.2,1.1c-0.2,1.1-0.4,2.3-0.4,3.4c-0.1,0.9-0.1,1.9,0.1,2.8c-0.1,0.1,0,0.2,0,0.4c-0.1,0.5,0.3,1.2-0.3,1.4
		c-0.2,0-0.5,0.1-0.8,0c-0.2-0.2-0.4-0.4-0.5-0.6c-1.2,0.3-2.4,0.6-3.7,0.5c-0.8-0.1-1.5-0.4-2.2-0.7c-0.6-0.3-1.2-0.7-1.7-1.1
		c-0.5,0.2-1,0.5-1.4,0.9c-0.5,0-1,0.2-1.6,0.3c-0.2-0.2,0-0.8-0.4-0.9c-0.5-0.1-0.9-0.1-1.2-0.4c0-0.2,0.2-0.4,0.3-0.6
		c0.2-0.3,0.5-0.7,0.7-0.9c0-0.4-0.5-0.4-0.7-0.7c-0.6,0.1-1-0.6-1.4-1c-0.9-1.2-1.7-2.5-2.5-3.7c-0.4-0.5-0.7-1-1.2-1.5
		c-0.5-0.3-0.7,0.4-1.1,0.5c-0.2,0.2-0.5,0.4-0.7,0.6c-0.4,0.4-0.8-0.2-1.2-0.2c-0.1,0.9-1.2,0.7-1.7,1c0,0,0-0.1,0-0.1
		c-0.9,0.4-1.8,0.8-2.7,1.1c-2,0.6-4.1,0.5-6.3,0.3c-0.8-0.2-1.7-0.3-2.4-0.8c0-0.1-0.2-0.2-0.1-0.4c0.9-1.6,2.6-2.5,4.2-3.1
		c-0.6-0.3-1-0.6-1.5-1c-0.4-0.3-0.8-0.5-1.1-0.9c-0.1-0.2-0.3-0.5-0.2-0.7c0.3-0.3,0.6-0.5,1-0.7L58.1,47.9L58.1,47.9z M99.7,47.9
		c0,0.6,0.1,1.2,0.2,1.8c-0.4,0.3-0.8,0.8-1,1.3c-0.1,0.1-0.2,0.3-0.4,0.4c-0.2,0-0.3-0.2-0.3-0.4c0-0.6,0.1-1.2,0-1.8
		c-0.3,0.1-0.7,0.2-1,0.5c0.1,0.5-0.2,1-0.1,1.5c0,0.9-0.1,1.8,0.1,2.7c0,0.3-0.1,0.7,0.1,1c0.2,1.9,0.4,3.9,0.9,5.8
		c0.1,0.5,0.4,1,0.5,1.5c0.2,0.6,0.4,1.2,0.6,1.7l-15.5,0c-0.1-0.5-0.3-1.1-0.3-1.6c-0.2-0.8-0.4-1.6-0.5-2.4
		c-0.2-1.3-0.4-2.7-0.3-4.2l0,0c-1,0.5-2.1,0.6-3.2,0.3l-0.1-0.1c0.1-1.2,0.4-2.2,0.4-3.4c-0.1-0.1-0.1-0.3-0.3-0.4
		c-0.3,0.1-0.7,0.2-1,0.4c-0.5,0-1-0.1-1.3-0.5c-0.4,0-0.8,0.2-1.2-0.1c-1.2-0.4-2.3-1-3.5-1.6c-0.4-0.2-0.8-0.7-0.9-1.1
		c0.2-0.6,0.6-0.9,1-1.3L99.7,47.9L99.7,47.9z M72.6,54.8l0,0.1c-1.2,0.2-2.2,0.6-3.2,1.2c-0.2-0.1-0.3-0.4-0.5-0.6
		c0-0.3,0.4-0.4,0.6-0.5c0.8-0.4,1.7-0.8,2.7-0.6C72.4,54.5,72.5,54.7,72.6,54.8L72.6,54.8z"/>
	<path style="fill-rule:evenodd;clip-rule:evenodd;fill:#FFCC00;" d="M44.8,47.9c0.5-0.2,1-0.3,1.4-0.5c0.3-0.1,0.7-0.2,1-0.2
		c-0.4-1-0.8-2-0.9-3.2c0.4-0.7,1.4-0.3,2-0.4c0.7,0.1,1.3,0.3,2,0.5c0.1-0.7,0-1.6,0-2.3c0.1,0,0-0.1,0-0.2c0.2-0.6,0-1.3,0.6-1.7
		c0.8,0.4,1.3,1,1.9,1.6c0.7,0.8,1.2,1.8,1.8,2.7c0,0.2,0.2,0.3,0.2,0.4c0.3,0.7,0.6,1.4,1,2c0.7-0.5,1.1,0.5,1.7,0.6
		c0.1,0.2,0.2,0.6,0.4,0.6L44.8,47.9L44.8,47.9z M72.5,47.9c0.1-0.1,0.2-0.2,0.3-0.2c-0.2-0.4-0.4-0.9-0.5-1.3
		c-0.6,0.1-1.4,0.3-1.8-0.4c-0.3-0.5-0.7-0.9-0.8-1.4c-0.4-0.6-0.7-1.2-0.9-1.9c-0.4-1.2-0.9-2.2-1.2-3.4c-0.2-0.6-0.3-1.3-0.5-1.9
		c-0.1-0.5-0.1-1-0.4-1.4c-0.6,0.1-1.1,0.4-1.6,0.8c-0.1,0-0.2,0.1-0.3,0.1c0.1-0.3-0.2-0.4-0.4-0.6c-0.5-0.2-1.1-0.2-1.7-0.4
		l-0.3-0.6c-0.9,0-1.7,0.2-2.5,0c-1.3,0.1-2.6-0.2-3.9-0.3c-0.2-0.1-0.5,0-0.6-0.2c-1.1-0.2-2.3-0.5-3-1.4c0-0.7,0.8-1.1,1.3-1.5
		c0.8-0.6,1.8-0.8,2.8-1c-0.1-0.5-0.7-0.8-0.8-1.3c-0.3-0.3-0.5-0.7-0.6-1.1c0-0.2-0.1-0.4,0-0.6c1.2-0.4,2.4-0.7,3.7-0.4l0.1,0
		c-0.2-0.3-0.1-0.6-0.4-0.9c-0.2-1-0.5-1.8-0.4-2.8c0.1-0.1,0.2-0.4,0.4-0.3c1.2,0.1,2.3,0.6,3.3,1.3c0-0.1,0-0.3,0.1-0.5
		c0-0.2,0.1-0.4,0.1-0.6c0.1-0.4,0.1-0.9,0.4-1.3c0-0.5,0.2-1.1,0.4-1.5c0.1-0.3,0.3-0.6,0.6-0.8c0.7-0.2,0.7,0.7,1.2,1
		c1.4,2.4,2.5,4.9,2.6,7.8c0.7,0.1,0.7,0.9,1,1.4c0,0.1,0,0.3-0.1,0.4c0.9,1.5,1.9,3,2.3,4.7c0.5,1.8,1,3.7,1.1,5.5
		c0,0.1-0.1,0.4,0.1,0.5c0.6,0.1,1.2,0.1,1.5,0.6c0.1,0,0.2,0.1,0.3,0.2c0.2,0.2,0.6,0.5,0.6,0.8c0.1,0.2,0.4,0.3,0.6,0.4
		c0.5,0,0.9-0.6,1.4-0.4c0.6,0.3,1.2,0.9,1.6,1.5c0.3,0,0.7,0.3,1-0.1c0-0.2-0.1-0.4,0-0.5c0.5-0.1,1,0.2,1.2,0.5
		c0.3,0.3,0.7,0.6,0.8,1.2c-0.1,0.2-0.2,0.4-0.4,0.6c0.2,0.2,0.2,0.5,0.5,0.7c0.3,0,0.5-0.2,0.8-0.3c0.3-1.4,1-2.7,1.9-3.8
		c0.4-0.3,0.7-0.7,1.2-1.1c0.7-0.6,1.3-1.2,1.9-1.7c1.2-0.9,2.4-1.9,3.3-3.1c0.7-0.8,1.2-1.7,1.6-2.6c0.1-0.4,0.3-0.8,0.3-1.2l0,0
		c0-0.8,0.1-1.8-0.7-2.4c-1.6-1.7-4-2-5.5-3.7c-1.3-1.5-2.2-3.4-1.9-5.6c0-0.1,0.1-0.2,0.2-0.2c1.8,0.3,3.1,1.7,4.6,2.7
		c0.6,0.5,1.3,0.9,2,1.3c0.2,0,0.4,0.1,0.5-0.1c0-0.4-0.2-0.8-0.3-1.1c-1-1.6-2.2-3.2-2.7-5c-0.2-0.3-0.3-0.6-0.4-0.9
		c0.1-0.3,0.1-0.5,0.4-0.6c0.5,0,1,0.2,1.5,0.2c1,0.4,2.1,0.6,3.2,0.6c1.6-0.2,3.2-0.8,4.8-0.2l0.8,0.2c0-0.4-0.2-0.7,0-1.1
		c0.4-0.1,0.7-0.5,1.1-0.4l0.4,0.5c0.9,2,2.3,3.9,3.7,5.6c1.2,1.5,2.8,2.8,4.5,3.5c0.4,0.2,0.2,0.5,0.3,0.8c0,0.3-0.2,0.6-0.1,0.9
		c-0.3,0.2-0.6-0.1-0.8-0.2c0.2,1.9-0.4,3.8-0.9,5.6c-0.1,0.1-0.1,0.1-0.1,0.3c-0.5,1.2-1.1,2.4-1.3,3.7c-0.2,0.4-0.2,0.9-0.3,1.3
		c-0.8,0.6-1.5,1.5-2.2,2.2c-0.1,0-0.2,0-0.3-0.2c0-0.3,0.2-0.5,0.2-0.7c0.2-0.6,0.3-1.3,0.4-1.9c0-0.2,0.1-0.5-0.1-0.7
		c-0.2,0.1-0.4,0.1-0.5,0.3c-0.1,1.5-0.6,2.9-1.1,4.3c-0.5,1.6-1.1,3.1-1.1,4.9c0,0.5,0,1,0,1.5L72.5,47.9L72.5,47.9z M76.1,44.9
		l0,0.5c-0.6,0-1.3-0.1-1.9,0.1c-0.1-0.2,0-0.3,0-0.6c0.2-0.1,0.5-0.2,0.7-0.2C75.2,44.8,75.7,44.7,76.1,44.9L76.1,44.9z
		 M123.7,23.3c0.1,0.2,0.1,0.4,0,0.6c-0.3,0.3-0.8,0-1.2,0.1c-0.4,0.2-0.4,0.7-0.5,1.2c0,0.2,0.1,0.4-0.1,0.6
		c-0.6,0-1.2-0.1-1.5-0.7c-0.2-0.3-0.7,0.1-0.8-0.4c-0.2-0.3-0.1-0.7,0-1c0.2-0.1,0.4-0.3,0.6-0.2c0.3-0.4,0.6-0.7,1-0.9
		c0.6-0.3,1.2-0.1,1.7,0.1C123.4,22.9,123.5,23.1,123.7,23.3L123.7,23.3z M109.4,22.4c0.1,0.3-0.2,0.5-0.2,0.8c-0.1,0-0.3,0.1-0.5,0
		c-0.2-0.2-0.5-0.4-0.4-0.7c0.1-0.2,0.3-0.3,0.5-0.3C109.1,22.2,109.3,22.2,109.4,22.4L109.4,22.4z M107.2,20.8
		c0.2,0.3-0.2,0.5-0.1,0.9c-0.1,0.1-0.4,0.1-0.6,0.1c-0.2-0.1-0.4-0.4-0.4-0.7c-0.1-0.1,0.1-0.3,0.2-0.4c0.3,0.1,0.5-0.3,0.8,0
		L107.2,20.8L107.2,20.8z M98.2,21.4c0.1,0.3,0.2,0.6,0.2,0.9c-0.2,0-0.4,0-0.6-0.1c-0.2,0-0.4,0.1-0.4,0.3c0,0.2-0.1,0.4-0.1,0.7
		c-0.6,0.1-1.3,0-1.7-0.4c-0.4-0.5-0.3-1.2,0-1.7c0.2-0.4,0.7-0.5,1-0.6C97.2,20.5,98,20.7,98.2,21.4L98.2,21.4z M105.1,18.8
		c0.3,0.3,0.1,0.7,0,1c-0.1,0.1-0.2,0.1-0.4,0l-0.1-0.1c-0.1,0-0.3,0-0.4-0.1c-0.1-0.1-0.3,0-0.3-0.2c0-0.3,0.1-0.8,0.4-0.9
		C104.7,18.6,105,18.6,105.1,18.8L105.1,18.8z M103.3,16.5c0.1,0.3,0,0.7-0.1,1c-0.3,0.2-0.7,0.1-1-0.1c-0.1-0.3-0.1-0.7,0.1-0.9
		C102.7,16.4,103.1,16.2,103.3,16.5L103.3,16.5z M117.8,12.5c-0.2,0.6-0.7,0.1-1.1,0.4c-0.4,0.4-0.4,1-0.4,1.5
		c0,0.1-0.1,0.2-0.3,0.3c-0.3-0.2-0.7-0.1-1,0c-0.6-0.1-0.7-0.6-1.1-0.9c-0.1-0.3-0.2-0.6,0.1-0.9c0.2-0.2,0.7,0.1,0.7-0.4
		c0.1-0.3,0.3-0.6,0.6-0.9c0.5-0.2,1.2-0.3,1.7-0.1C117.3,11.8,117.7,12.1,117.8,12.5L117.8,12.5z M79.9,11.7c0.9,1.2,1.1,2.7,1.9,4
		c0.2,0.5,0.8,0.7,0.8,1.3c-0.4,0.2-0.9,0.1-1.3,0.1c-1.4-0.2-2.4-1.7-2.8-3c-0.5-1.1-0.5-2.5-1.7-3.3c0-0.1,0.1-0.2,0.2-0.3
		C78.2,10.3,79.2,10.9,79.9,11.7L79.9,11.7z M105,9.2c0.3,0.8,0.5,1.7,0.8,2.6c0,0.5,0.2,1,0.2,1.5c0.1,0,0,0.1,0,0.1
		c0,0.6,0.1,1.3,0.2,1.8c0.7-0.3,1.5-0.2,2.2-0.4c0.5,0,0.9-0.1,1.5-0.1c0.6,0,1.1,0,1.7-0.1c0.3,0.1,0.7,0,1,0.2
		c0.3,0.4,0,0.9,0,1.3c-0.4,0.9-0.7,1.7-1.2,2.5c-0.2,0.3-0.3,0.7-0.6,1c-0.1,0.4-0.4,0.7-0.5,1.1c1.7,0.2,3.4,0.7,5,1.3
		c0.1,0.2,0.3,0,0.4,0.1c0.4,0.2,0.8,0.5,1.2,0.8c0,0.1,0,0.2-0.1,0.4c-0.3,0-0.6-0.1-0.8,0l-0.2,0c-0.7,0.2-1.5,0.1-2.2,0.4
		c-0.4-0.1-0.7,0.1-1.1,0.2c-0.7,0.2-1.5,0.3-2,0.7c0,0.3-0.2,0.4-0.5,0.5c-0.4,0-0.8,0.1-1.2,0.1c-0.1-0.3-0.2-0.6-0.6-0.7
		c-0.1-0.1-0.2-0.1-0.3-0.1c-0.6-0.4-1.3-0.7-1.8-1.3c-1.7-1.4-3.2-2.9-4.6-4.6c0-0.2-0.4-0.4-0.5-0.6c-0.5-0.7-1-1.4-1.4-2.2
		c0-0.1,0-0.2,0.1-0.4c0.6-0.1,0.8-0.9,1.3-0.9c0.4,0.2,0.6,0.7,1.1,0.4c0.5,0,0.5-0.7,0.6-1c0.5-1.9,0.7-4,0.7-6
		c0-0.2,0-0.4,0.2-0.5c0.2,0,0.3,0,0.5,0.1c0.4,0.4,0.6,0.8,0.8,1.3C105,9,105,9.2,105,9.2L105,9.2z M105.1,2.1
		c0,0.4-0.4,0.4-0.6,0.6c-0.3,0.2-0.5,0.5-0.5,0.8c0.2,0.1,0.5,0.2,0.6,0.4c-0.1,0.4,0.2,0.9-0.2,1.1c-0.5,0.4-1.2,0.1-1.6-0.2
		c-0.5-0.4-0.8-0.9-0.8-1.5c0.1-0.7,0.4-1.5,1.1-1.9c0.4-0.2,1-0.2,1.4,0C104.7,1.6,104.8,1.9,105.1,2.1L105.1,2.1z"/>
	<path style="fill-rule:evenodd;clip-rule:evenodd;" d="M95.6,114.1c1.7,0.9,3.3,2.1,4.6,3.5c0.3,0.6,0.8,1,1,1.6
		c0,0.2-0.1,0.4-0.3,0.4c-0.6-0.1-1.4-0.1-2-0.4c-0.5-0.6-1.1-1.2-1.6-1.7c-1.4-1.3-3.1-2.2-5-2.3c-0.8,0-1.6,0.1-2.1,0.7
		c-0.7,0.3-1.4-0.3-2.1-0.4c-0.3-0.1-0.6-0.3-0.8-0.7c0-0.3,0.1-0.6,0.2-0.8L95.6,114.1L95.6,114.1z M103.7,114.1
		c0.1,0.2,0,0.5,0,0.7c-0.3,0.5-0.5,1.1-0.7,1.6c-0.3,0.8-0.5,1.7-0.9,2.4l-0.1,0.1c-0.4-0.4-0.8-0.8-1.1-1.1
		c-0.3,0-0.2-0.3-0.3-0.5c0.1-0.3,0.3-0.5,0.3-0.8c0.1-0.1,0.2-0.3,0.2-0.4c-0.7-0.5-1.3-0.9-1.9-1.4c-0.1-0.2-0.3-0.3-0.5-0.5
		L103.7,114.1L103.7,114.1z M113.4,114.1c-0.3,0.5-0.6,0.9-0.9,1.4c0,0.2-0.2,0.3-0.3,0.5c-0.3,0.5-0.7,0.9-1,1.4
		c-0.3,0.6-0.8,1.2-1.1,1.8c-0.2,0.2-0.2,0.6-0.4,0.8c-0.3,0.8-0.8,1.6-0.6,2.5c0.1,0.6,0.4,1.3-0.1,1.8c-0.5,0.5-0.8,1.1-1.4,1.5
		c-0.6,0.1-0.8-0.6-1.2-0.9c-0.4-0.8-0.8-1.7-0.7-2.7c-0.1-0.4,0.2-0.8,0.3-1.2l0,0c0-0.1,0.1-0.3,0.1-0.4c0.3-0.8,1-1.5,1.5-2.3
		l0.1,0c0.9-1.4,1.8-2.6,2.6-4c0-0.1,0-0.1,0-0.2L113.4,114.1L113.4,114.1z M129.4,114.1c0.8,0.2,1.6,0.5,2.4,0.7
		c0.3,0.1,0.5,0.2,0.7,0.5c0,0.1,0,0.3-0.1,0.4c-0.1,0.7,0.1,1.9-0.8,2.3c-0.5,0.1-1,0.2-1.5,0.1c-1.9,0-3.8-0.7-5.5-1.7
		c-0.5-0.2-0.8-0.7-1.3-0.8c-0.6-0.5-1.2-0.9-1.7-1.5L129.4,114.1L129.4,114.1z M138.1,114.1c0,0.9-0.1,1.9-0.3,2.8
		c-0.1,0.8-0.3,1.7-0.5,2.4c0.1,0,0.4,0,0.5,0.2c0,0.3-0.2,0.4-0.2,0.6c-0.2,0.4-0.4,0.9-0.8,1.1c-0.3,0.4-0.8,0.8-1.4,0.6
		c-0.3-0.3-1.1-0.3-0.9-0.9c0-0.2,0.1-0.3,0-0.5c-0.2,0-0.3-0.2-0.4-0.3c0-0.4,0.2-0.7,0.2-1c-0.2-0.2-0.5,0.1-0.7,0
		c-0.2,0-0.5-0.1-0.6-0.3c-0.1,0-0.2-0.2-0.1-0.3c-0.2-0.4-0.2-0.9,0-1.2c0.4-0.3,1-0.1,1.3-0.5l0.3-0.4c0-0.7,0-1.5,0-2.2
		L138.1,114.1L138.1,114.1z M85.7,120.1c1.3,0.1,2.6,0.3,3.7,0.7c0.3,0.1,0.6,0.2,0.9,0.3c0.2,0.1,0.4,0.2,0.6,0.3
		c0.7,0.4,1.4,0.8,2.1,1.3c0.1,0,0.1,0.1,0.2,0.1c0.1,0.3,0.5,0.5,0.2,0.8c-0.3,0.4-0.7,0.5-1,0.6c-0.6-0.2-1.2-0.5-1.8-0.8
		c-2.2-0.8-4.8-1.8-7.2-1.1c-0.4,0.1-0.9,0.4-1,0.8c0,0.3,0.1,0.6,0.4,0.7c1.1,0.6,2.4,0.3,3.6,0.6c0.9,0.2,1.9,0.3,2.8,0.8
		c0.4,0,0.6,0.4,1.1,0.4c1.1,0.6,2.1,1.3,3.2,1.6c0.8-0.3,1.4-0.8,2.3-1c2-0.6,4.4-0.5,6.4-0.3c1.5,0.2,2.9,0.8,4.4,0.5
		c0.2-0.1,0.3-0.2,0.5-0.3c0.6,0.1,1.1,0.7,1.4,1.1c0,0.3,0,0.6-0.1,0.9c-0.6,0.9-1.8,0.7-2.8,0.6c-2.4-0.5-4.8-1-7.2-0.7
		c-1.7,0.2-3.1,1-4.6,1.6c-1.7,0.5-2.8-0.8-4-1.8c-0.7-0.4-1.4-0.8-2.2-1.1c-2.3-0.5-4.7-0.3-6.8-1.2c-0.5-0.2-1-0.7-1.4-1.1
		c-0.5-1,0.1-2,0.7-2.7c0.8-1,2-1.3,3.1-1.5c0.6-0.1,1.2,0,1.8-0.2C85.3,120.2,85.5,120.1,85.7,120.1L85.7,120.1z M95.8,119.7
		c0.3,0.2,0.3,0.7,0.2,1c-0.1,0.2-0.3,0.4-0.5,0.5c-0.7,0.1-1.3-0.1-1.8-0.6c-0.5-0.2-0.8-0.6-1.2-0.8c0-0.1-0.1,0-0.1-0.1
		c-0.4-0.1-0.8-0.5-1.2-0.7c-0.6-0.1-1.2-0.6-1.9-0.6c-1-0.2-2.4-0.5-3.4,0.1c-0.8,0.1-0.8,1.2-1.6,1.2c-0.7,0.1-1.6,0.2-2-0.5
		c-0.4-0.8,0.1-1.8,0.7-2.5c0.8-0.7,1.8-0.9,2.9-0.9C89.6,115.9,93.2,117.2,95.8,119.7L95.8,119.7z"/>
	<path style="fill-rule:evenodd;clip-rule:evenodd;" d="M57.4,106.1c-0.1,0.3,0.3,0.4,0.4,0.5c1.7,0.6,3.6,0.4,5.4,1.1
		c1.5,0.5,3,1.1,4.3,2c0.7,0.5,1.3-0.1,1.9-0.3c0.7-0.1,1.1-0.7,1.9-0.6c0.3-0.3,0.7-0.1,1-0.3c0.4-0.1,0.8,0,1.2-0.1
		c0.8,0,1.7,0.1,2.5,0.2c0.1,0.1,0.3,0,0.5,0.1c1,0.1,2,0.4,3,0.5c0.7,0.1,1.7,0,2.4-0.3c0.8-0.1,1.3,0.5,1.7,1
		c0.1,0.5-0.2,1-0.6,1.3c-0.7,0.6-1.6,0.4-2.5,0.5c-1-0.1-1.9-0.4-2.9-0.4c-0.3-0.2-0.6,0-0.9-0.1c-0.6-0.1-1.2-0.2-1.9-0.1
		c-1.1-0.1-2.2,0-3.3,0.3l-1.7,0.6c-1,0.5-2.3,1.4-3.4,0.5c-0.7-0.5-1.4-1.1-2.2-1.5c-0.2-0.2-0.5-0.2-0.7-0.4
		c-2.4-1.1-5.1-0.8-7.6-1.7c-0.6-0.3-1.4-0.7-1.6-1.4c-0.1-0.4-0.1-0.8,0-1.2L57.4,106.1L57.4,106.1z M68.2,106.1
		c0,0.2-0.2,0.4-0.3,0.6c-0.6,0.4-1.4,0.7-2,0.4c-0.3-0.2-0.6-0.2-0.8-0.4c-0.4-0.2-0.9-0.4-1.3-0.6L68.2,106.1L68.2,106.1z
		 M84.7,106.1c0.1,0.2,0.1,0.5,0.1,0.8c0,0.4-0.1,0.8-0.4,1.1c-0.5,0.3-0.7,1.1-1.4,0.9c-1.1-0.4-1.6-1.6-1.8-2.7c0,0,0,0,0,0
		L84.7,106.1L84.7,106.1z M98.2,106.1c0.1,0.2,0.1,0.5,0.2,0.8c0.6,1.8,1.5,3.4,2.8,4.9c0.6,0.8,1.4,1.3,2.2,1.9
		c0.2,0.1,0.3,0.3,0.3,0.5l-5.2,0c-0.1-0.1-0.2-0.2-0.2-0.3c0-0.1-0.2-0.1-0.2-0.2c-0.3-0.3-0.6-0.6-0.8-0.9
		c-0.3-0.3-0.6-0.8-0.9-1.2c0-0.3-0.3-0.3-0.4-0.5c-0.1-0.4-0.4-0.7-0.5-1c-0.1-0.2-0.2-0.5-0.3-0.7c-0.3-0.5-0.3-1-0.6-1.5
		c-0.1-0.6-0.3-1.1-0.5-1.7L98.2,106.1L98.2,106.1z M112.2,106.1c-0.2,0.2-0.3,0.2-0.5,0.3c-0.2-0.1-0.5-0.2-0.7-0.3L112.2,106.1
		L112.2,106.1z M120.2,106.1c0.6,1.2,1.4,2.2,2.3,3.2c0.9,1,1.9,2,2.9,2.8c1.1,0.6,2,1.4,3.1,1.7c0.2,0.2,0.6,0.1,0.9,0.3
		c0,0,0.1,0,0.1,0h-7.9c-1.1-1-2-2-2.8-3.3c-0.6-0.7-1.1-1.6-1.6-2.5c-0.4-0.7-0.8-1.5-1.2-2.3L120.2,106.1L120.2,106.1z
		 M136.8,106.1c0.1,0.2,0.1,0.4,0.2,0.6c0.7,2.3,1.1,4.9,1.1,7.4l-3.8,0c0-1.3-0.1-2.5-0.3-3.7c-0.3-1.5-0.6-3-1.1-4.3L136.8,106.1
		L136.8,106.1z M87.4,114.1c0.4-0.5,1.2-0.7,1.7-1c0.6-0.2,1.3-0.3,1.9-0.3c0.8,0.1,1.5,0.2,2.2,0.4c0.8,0.2,1.6,0.5,2.3,0.9
		L87.4,114.1L87.4,114.1z M110.4,114.1c0-0.1,0.1-0.2,0.2-0.2c0.9-1.9,2-4,1.2-6.1c0-0.3-0.3-0.5-0.2-0.9c0.1-0.2,0.4-0.4,0.7-0.5
		c0.8,0.1,1.7,0,2.2,0.6c0.7,0.9,0.7,2.2,0.5,3.3c-0.1,0.1,0,0.3-0.1,0.5c-0.1,0.6-0.4,1.2-0.7,1.8c-0.2,0.5-0.5,1.1-0.8,1.6
		L110.4,114.1L110.4,114.1z"/>
	<path style="fill-rule:evenodd;clip-rule:evenodd;" d="M72.2,98.1c0.9,0.6,1.7,1.2,2.3,2.2c0.1,0.2,0,0.3-0.1,0.5
		c-0.2,0.1-0.4,0.3-0.7,0.2c-0.5-0.3-0.9,0-1.4-0.1c-0.6-0.3-1-1-1.6-1.3c-1.5-1.2-3.3-1.5-5.2-1c-0.7,0.5-1.5,0-2.3-0.1
		c-0.4,0-0.8-0.1-1.1-0.4L72.2,98.1L72.2,98.1z M75.9,98.1c0,0.1,0,0.2,0.1,0.3c-0.2,0.4-0.6,0.8-0.9,1.1c-0.8,0.1-1.2-0.7-1.8-1
		c-0.1-0.1-0.2-0.2-0.2-0.4L75.9,98.1L75.9,98.1z M85.6,98.1c-0.1,0.7-0.3,1.3-0.6,1.9c-0.6,1.1-1.1,2.2-1,3.5
		c0.1,0.2,0,0.5,0.1,0.7c-0.1,0.3,0.2,0.5,0.1,0.7c0.1,0.1,0.2,0.3,0.2,0.4c0.1,0.3,0.2,0.5,0.3,0.8l-3.5,0c0-0.1,0-0.2-0.1-0.3
		c-0.7-2.7,0.6-5.2,1.3-7.7L85.6,98.1L85.6,98.1z M93.1,98.1c0,0.3,0.1,0.5,0.1,0.8c0.1,0.1,0.1,0.3,0.1,0.4
		c0.2,0.6,0.4,1.3,0.8,1.8c0.3-0.5,0.1-1.3,0.9-1.4c0.4-0.1,0.8,0.4,1.1,0c0.1,0,0.2-0.2,0.3-0.2c0-0.2,0.2-0.2,0.3-0.3
		c0.2-0.1,0.3-0.2,0.5,0c0.5,0.5,0.2,1.3,0.2,1.9c0,1.5,0.2,2.8,0.5,4.2c0,0.2,0.1,0.4,0.1,0.6c0,0.1,0.1,0.1,0.1,0.2l-4,0
		c-0.1-0.3-0.1-0.6-0.1-1c-0.1-0.2,0-0.5-0.1-0.7c-0.3,0.1-0.4,0.5-0.8,0.5c-1.2-0.2-2.3-1.1-2.8-2.2c-0.5-0.9-0.8-2-0.9-3.1
		c-0.2-0.4-0.2-0.8-0.2-1.3c0-0.1,0-0.1,0-0.2L93.1,98.1L93.1,98.1z M111.1,98.1c0.1,0.4,0.1,0.8,0.2,1.2c0.4,1.3,0.8,2.4,1.4,3.5
		c0,0.2,0.2,0.3,0.3,0.5c0.1,0.4,0.3,0.7,0.3,1.2c-0.3,0.6-0.8,1-1,1.6c0,0,0,0,0,0l-1.1,0c-1.1-0.7-1.8-2.1-2.4-3.2
		c-0.5-1.6-0.6-3.2-0.5-4.8L111.1,98.1L111.1,98.1z M116.8,98.1c0.2,0.8,0.5,1.5,0.7,2.3c0.3,0.5,0.4,1,0.6,1.5
		c0.4,1.1,0.9,2.2,1.5,3.2c0,0.1,0.1,0.2,0.2,0.4c0.1,0.2,0.2,0.4,0.3,0.6l-4.3,0c-1.2-2.5-2.1-5.2-2.7-8L116.8,98.1L116.8,98.1z
		 M133.5,98.1c0.1,0.2,0.2,0.3,0.3,0.5c0.6,1.2,1.1,2.3,1.6,3.5c0.6,1.3,1,2.6,1.4,4l-4,0c-0.1-0.2-0.2-0.4-0.2-0.6
		c-0.6-1.8-1.5-3.6-2.4-5.3c-0.4-0.7-0.8-1.4-1.2-2.1L133.5,98.1L133.5,98.1z M54.4,106.1c0.1-0.2,0.1-0.4,0.3-0.5l0-0.1
		c0.4-0.6,0.9-1,1.5-1.5c0.2,0,0.4-0.3,0.6-0.4c0.7-0.4,1.7-0.5,2.5-0.6c2.7-0.1,5.3,0.6,7.5,1.8c0.5,0.2,0.8,0.6,1.3,0.9
		c0.1,0.1,0.1,0.2,0.1,0.3l-4.5,0c-0.3-0.1-0.6-0.3-0.9-0.3c-1.7-0.5-4.1-1.4-5.5,0.3c0,0,0,0,0,0L54.4,106.1L54.4,106.1z
		 M66.6,99.9c0.4,0.2,0.8,0.4,1.2,0.6c1.1,0.7,2.3,1.1,3.1,2.3c0.1,0.2,0.1,0.5,0,0.7c-0.2,0.3-0.4,0.7-0.8,0.7
		c-0.9,0-1.5-0.7-2.2-1c-0.2-0.2-0.5-0.3-0.7-0.5c-0.3-0.2-0.6-0.4-1-0.5c-0.2-0.2-0.4-0.2-0.6-0.3c-1.8-0.6-3.9-1-5.4,0.4
		c-0.1,0.2-0.3,0.4-0.5,0.6c-0.7,0.1-1.8,0.4-2.2-0.4c-0.4-1.2,0.5-2.1,1.2-2.8c1.3-0.9,3.4-0.8,4.9-0.5
		C64.6,99.3,65.6,99.5,66.6,99.9L66.6,99.9z"/>
	<path style="fill-rule:evenodd;clip-rule:evenodd;" d="M74.8,90.1c-0.1,1.1-0.1,2.3,0.1,3.3c-0.1,0.4,0.1,0.7,0.1,1
		c0.1,0.9,0.3,1.7,0.6,2.6c0.1,0.4,0.2,0.7,0.3,1.1l-2.9,0c-0.7-1.2-0.8-2.7-1-4.1c-0.1-1.3-0.2-2.6-0.1-3.9L74.8,90.1L74.8,90.1z
		 M87,90.1c0.2,0.1,0.4,0.1,0.6,0.2c0.6,0,1.4,0.2,1.6,0.9c0.3,0.2,0.2,0.6,0.2,0.9c-0.5,0.5-1.3,0.4-2,0.4
		c-0.2-0.1-0.4-0.1-0.6-0.2c-1-0.2-2-0.6-3-0.9c-0.1-0.2-0.2,0-0.4-0.1c-0.6-0.3-1.2-0.7-1.6-1.2L87,90.1L87,90.1z M93.5,90.1
		c-0.1,0.5-0.2,0.9-0.3,1.5c-0.3,1.4-0.3,3-0.4,4.4c0.1,0.7,0.2,1.4,0.3,2.2l-3.8,0c0-0.9,0-1.6,0-2.5c0.1-0.6,0.1-1.2,0.2-1.7
		c0-0.1,0-0.3,0-0.5c0-0.1,0-0.2,0-0.3c0.2-0.4,0-0.7,0.3-1.1c-0.1-0.7,0.3-1.3,0.4-2L93.5,90.1L93.5,90.1z M111.6,90.1
		c-0.6,2.6-0.9,5.3-0.5,8l-2.9,0c0.1-1.6,0.3-3.2,0.4-4.7c0.2-1,0.4-2,0.5-3c0-0.1,0-0.2,0.1-0.3L111.6,90.1L111.6,90.1z
		 M115.4,90.1c0.2,1.6,0.2,3.3,0.6,4.6c0.1,0.9,0.3,1.8,0.6,2.7c0.1,0.2,0.1,0.5,0.2,0.7l-3.6,0c-0.1-0.3-0.1-0.6-0.2-0.9
		c-0.3-1.7-0.8-3.5-0.5-5.3c0.1-0.5-0.1-1,0.2-1.4c0.2-0.2,0.3-0.3,0.5-0.4L115.4,90.1L115.4,90.1z M128,90.1
		c0.5,0.6,1.1,1.2,1.6,1.9l0.4,0.4c1.4,1.9,2.4,3.8,3.6,5.7H129c-0.7-1.2-1.4-2.4-2.1-3.5c0-0.1-0.2-0.2-0.2-0.4
		c-1.1-1.5-2.3-2.9-3.6-4.1L128,90.1L128,90.1z M62,98.1c-0.1-0.1-0.1-0.2-0.2-0.3c0-0.6,0.5-0.9,0.8-1.2c1.7-1.4,4-1.1,5.9-0.4
		c1,0.4,2,0.8,2.9,1.4c0.3,0.2,0.6,0.4,0.8,0.5L62,98.1L62,98.1z M82.5,98.1c0.1-0.2,0.1-0.5,0.2-0.7c0.3-0.9,0.3-1.9,0.2-2.9
		c0-0.7-0.4-1.3-0.6-2c0-0.2,0.1-0.3,0.3-0.4c0.8-0.1,1.7,0.4,2.4,0.9c0.2,0.2,0.4,0.5,0.5,0.8c0.5,1,0.3,2.3,0.3,3.4
		c0,0.3-0.1,0.6-0.2,0.9L82.5,98.1L82.5,98.1z"/>
	<path style="fill-rule:evenodd;clip-rule:evenodd;" d="M73.8,82.1c0,0.1,0.1,0.1,0.1,0.2c0.1,0.3,0.3,0.6,0.2,0.9
		c0,0.2-0.3,0.2-0.4,0.4c-0.7,0.2-1.5,0.8-2.1,0.1c-0.5-0.5-0.9-1-1.2-1.6L73.8,82.1L73.8,82.1z M94.3,82.1c0.3,0.2,0.6,0.4,0.9,0.5
		l0.4,0c0.2-0.1,0.4-0.4,0.6-0.6l1,0c0,0,0.1,0.1,0.1,0.2c0.1,0.9-0.3,1.7-0.3,2.6c0,0.2-0.1,0.4-0.2,0.6c-0.1,0.1-0.4,0.1-0.5,0
		c-0.3-0.1-0.4-0.5-0.5-0.7c-0.4,0.2-0.5,0.6-0.8,1c-0.5,0.9-0.8,1.9-1.2,2.9c-0.1,0.5-0.2,1-0.3,1.4l-3.2,0c0-0.1,0-0.2,0-0.2
		c0.3-0.7,0.4-1.6,0.9-2.4c0.1-0.8,0.6-1.3,0.9-2.1c-1.6-1.1-3.2-1.9-4.6-3.3c0,0-0.1-0.1-0.1-0.1L94.3,82.1L94.3,82.1z M113.7,82.1
		c0,0.1,0,0.2,0,0.3c-0.4,1.5-0.7,2.9-1.3,4.2c-0.3,1.1-0.6,2.3-0.9,3.5l-2.5,0c0.5-2.8,1.2-5.3,1.7-8L113.7,82.1L113.7,82.1z
		 M71.8,90.1c0.1-0.7,0.2-1.4,0.3-2.1c0.2-1.1,0.5-2.3,1-3.3c0.1-0.1,0.2-0.3,0.4-0.3c0.8,0.1,1.4,0.6,1.9,1c0.4,0.4,0,0.9,0,1.3
		c-0.1,0.3-0.1,0.6-0.2,0.8c-0.1,0.7-0.3,1.5-0.3,2.3c0,0.1,0,0.2,0,0.3L71.8,90.1L71.8,90.1z M81.8,90.1c-0.4-0.4-0.7-1-0.8-1.6
		c0-0.3,0.3-0.5,0.6-0.6c0.8,0.1,1.5,0.3,2.3,0.5c0.6,0.1,1.1,0.1,1.5,0.6c0.4,0.5,1,0.8,1.6,1.1L81.8,90.1L81.8,90.1z M113.2,90.1
		c0.5-0.3,1.2-0.4,1.7-0.8c0.2,0.1,0.4,0.1,0.5,0.4c0,0.1,0,0.3,0,0.4L113.2,90.1L113.2,90.1z M123.1,90.1c-0.8-0.8-1.7-1.6-2.6-2.3
		c-1.1-0.9-2.4-1.6-3.6-2.4c-0.5-0.2-1-0.6-1.6-0.5c-0.3-0.1-0.2-0.4-0.5-0.4c-0.4-0.5,0.4-0.7,0.6-1c0.8-0.4,1.6-1.3,2.6-0.8
		c0.3,0.2,0.6,0.1,0.9,0.4c0.6,0.1,1,0.6,1.5,0.8c2.5,1.5,5.2,3.3,7.2,5.6c0.2,0.2,0.4,0.4,0.5,0.6L123.1,90.1L123.1,90.1z
		 M81.4,86.6c0.1,0.1,0.2,0.3,0.1,0.4c-0.2,0.2-0.3,0.5-0.3,0.8C81.1,88,80.9,88,80.7,88c-0.4-0.2-1.2-0.1-1.3-0.8
		c0.1-0.5-0.6-1.3,0.2-1.5C80.3,85.8,80.8,86.2,81.4,86.6L81.4,86.6z"/>
	<path style="fill-rule:evenodd;clip-rule:evenodd;" d="M46.3,50.1c0.4,0.3,0.9,0.6,1.3,0.9c0.1,0.1,0.1,0.2,0.1,0.4
		c-0.2,0.2-0.5,0.3-0.6,0.3c-1,0.3-2,0.9-2.8,1.7l-0.7,0.7c0,0.1,0.2,0.2,0.3,0.3c0.1-0.1,0.1,0.1,0.3,0.1c3.1,1.1,6-0.2,8.8-0.9
		c0.3-0.1,0.6-0.1,0.8-0.3c0.1,0.1,0.2,0,0.3,0c0.2,0,0.3-0.1,0.5,0c0.2,0.3,0.1,0.6,0.2,0.9c-0.6,1-1.7,1.7-2.8,2.1
		c-2.6,0.9-5.6,1.2-8.3,0.8c-1.3-0.4-3-0.5-3.6-2c-0.2-0.6,0.2-1.1,0.6-1.6c0.7-0.9,1.6-1.8,2.6-2.2c0.2-0.1,0.4-0.3,0.7-0.3l0-0.1
		c-0.3-0.2-0.7-0.4-1-0.7L46.3,50.1L46.3,50.1z M63.7,50.1c0.4,0.5,0.7,0.9,1.1,1.4c0.2,0.5,0.5,0.9,0.3,1.5c-0.1,0.3,0,0.6-0.2,0.9
		c-0.1,0.2-0.3,0.3-0.5,0.3c-0.4-0.1-0.8-0.1-1.2-0.2c-1.1-1.2-2-2.7-3.1-3.9L63.7,50.1L63.7,50.1z M73.6,50.1
		c1.1,0.6,2.2,1.4,3.6,1.2c0.5-0.1,0.5,0.5,0.9,0.4c0.6,0.1,1.2-0.7,1.6,0c0,0.2,0.3,0.3,0.2,0.5c0.1,0.8-0.3,1.6-0.3,2.5
		c0,0.3-0.1,0.6-0.1,0.9c0.1,0.3-0.1,0.7,0,1l0,0.1c0,1.3,0.2,2.6,0.3,3.9c0.3,0.5,0,1,0.4,1.5c0,0.5,0.1,1,0.3,1.3
		c0,0.4,0.2,0.8,0.3,1.2c0.4,1.1,0.8,2.1,1.3,3.3c0.4,0.7,0.7,1.6,1.1,2.3c0,0.4,0.5,0.6,0.5,1c0.4,0.5,0.7,1,0.9,1.5l0.1,0
		c0.4,0.5,0.6,1.1,1.1,1.5c0.1,0.3,0.4,0.5,0.6,0.8c1.6,1.9,3.4,3.5,5.3,5.1c0.9,0.8,1.8,1.4,2.8,2l-6.9,0c-0.6-0.5-1.1-1-1.7-1.5
		c-0.5-0.6-1.1-1.1-1.6-1.6c-1.3-1.5-2.8-3.1-3.6-4.9c-0.2-0.2-0.4-0.5-0.4-0.8c-0.5-1.1-1.1-2.2-1.5-3.3c-0.3-0.5-0.4-1-0.6-1.6
		c-0.1-0.6-0.4-1.3-0.5-1.9c-0.2-0.6-0.2-1.2-0.4-1.8c0-0.6-0.2-1.2-0.2-1.7c-0.1-0.1-0.2,0.1-0.2,0.1c-0.7,0.4-1.5,0.8-2.3,0.9
		c-1.3,0.3-2.5,0.3-3.8,0.1c-0.9-0.3-1.8-0.4-2.6-1c-0.6-0.4-1.1-1.1-1.8-1.3c-0.2-0.2-0.1-0.4-0.1-0.7c0.1-0.3,0.3-0.3,0.6-0.5
		c0.6-0.4,1.3-0.9,2.1-0.8c0.1,0.2,0.4,0.2,0.5,0.4c0.8,0.5,1.5,1,2.4,1.2l0.1,0.1c1.5,0.2,2.9,0.1,4.3-0.5c0.4,0,0.4,0.5,0.7,0.7
		l0.1-0.1c-0.2-1-0.2-2-0.2-3l0-0.1c-0.1-0.9,0-2,0.2-2.9c0-0.6,0.2-1.2,0.4-1.8c-0.3-0.1-0.7-0.1-1.2-0.1c-0.9-0.1-1.9-0.4-2.8-0.7
		c-0.3-0.2-0.6-0.1-1-0.1c-1.8,0-3.5,0.6-5,1.4c-0.2,0-0.4,0.1-0.6,0c-0.2-0.6-1.2-0.7-1-1.5c0.9-0.8,2.1-0.9,3.2-1.3
		c0.5,0,1-0.1,1.5-0.2l0,0c-0.4-0.4-0.9-0.9-1.1-1.4L73.6,50.1L73.6,50.1z M98.7,50.1c0.1,1.2,0.1,2.4,0.3,3.6c0.1,1,0.4,2,0.5,2.9
		c0.3,0.5,0.2,1.1,0.5,1.6c0,0.2,0.1,0.4,0.2,0.6c0.3,1,0.7,2,1.1,3c0.2,0.5,0.4,1.1,0.7,1.5c0.2,0.4,0.4,0.8,0.6,1.2
		c1.4,2.6,3.3,5,5.5,7.2c1.4,1.3,2.8,2.4,4.3,3.6c0.5,0.6,1.1,1.1,1.3,1.9c0.6,1.5,0.3,3.1,0.2,4.7c0,0,0,0.1,0,0.1l-2.9,0
		c0.1-0.3,0.1-0.7,0.2-1c0.2-1.2-0.2-2.4-0.8-3.3c-0.2-0.2-0.4-0.2-0.5-0.5c-1.2-0.7-2.3-1.7-3.3-2.7c-2.1-1.8-3.8-4-5.4-6.1
		c-0.7-1-1.3-2-1.9-3c0-0.3-0.2-0.6-0.3-0.9c-0.2-0.3-0.2-0.6-0.4-1c-0.9-2.5-1.4-5.2-1.7-7.8c-0.1-1.9-0.3-3.8-0.2-5.6L98.7,50.1
		L98.7,50.1z M102.8,50.1c0.3,1,0.7,1.9,0.9,2.9c-0.3,0.5-0.2,1.2-0.8,1.4c-0.8,0.3-1.2-0.5-1.7-0.9c-0.1-0.3-0.4-0.5-0.5-0.8
		c-0.6-0.7-0.9-1.6-1.2-2.4c0-0.1,0-0.1,0-0.2L102.8,50.1L102.8,50.1z M70.3,82.1c-0.8-1.3-1.1-2.8-0.8-4.2c0.1-0.1,0-0.3,0.1-0.4
		c0.5-1.4,1.9-2.1,3.2-2.6c1.3-0.4,2.6-0.6,3.9-0.7c1,0.1,1.9,0.1,2.8,0.3c0.6,0.1,1.1,0.8,1.2,1.5c-0.1,0.3-0.5,0.5-0.7,0.6
		c-1,0.5-1.9-0.4-3-0.2c-1.3-0.1-2.5,0.4-3.3,1.4c-0.2,0.2-0.4,0.5-0.4,0.7c-0.6,1.2-0.4,2.6,0.3,3.7L70.3,82.1L70.3,82.1z
		 M96.1,82.1c0.1-0.1,0.3-0.2,0.6-0.2c0.1,0,0.3,0.1,0.4,0.2L96.1,82.1L96.1,82.1z M58.3,53.7c0.9,0.8,1.4,2.1,2.1,3
		c0,0.2,0.3,0.4,0.3,0.7c0.5,0.5,0.8,1.2,1.3,1.7c0.5,0.1,0.5,0.7,1,0.8c0.2,0.2,0.6,0.2,0.9,0.4c0.3,0,0.5,0.2,0.8,0.2
		c0.3,0.1,0.7,0.1,0.8,0.4c0.1,0.3,0.1,0.7,0.3,1c0,0.3,0.3,0.6,0.2,0.9c-0.6,0.5-1.4,0.3-2.1,0.3c-1.3-0.3-2.3-0.8-3.3-1.7
		c-0.7-0.6-1.3-1.5-1.8-2.2c-0.1-0.2-0.3-0.4-0.4-0.6c-1.1-1.4-1.6-3-3-4.1c-0.1,0-0.3-0.1-0.3-0.2c0.1-0.4,0-0.7,0.1-1.1
		c0.1-0.2,0.3-0.5,0.5-0.5C56.6,52.7,57.5,53,58.3,53.7L58.3,53.7z"/>
	<path style="fill-rule:evenodd;clip-rule:evenodd;" d="M55.7,34.1c0.2,0,0.4,0,0.5,0.1c1.2,0.3,2.7,0.2,3.9,0.3
		c0.3-0.1,0.6,0,0.8-0.1c0.5,0,1-0.1,1.5,0c0.2,0.1,0.4,0.4,0.4,0.7c0.3,0.1,0.6,0.1,0.9,0.2c1.5,0.8,1.7,2.5,2.3,3.8
		c0.8,1.9,1.5,3.7,2.3,5.6l0,0.2c0.5,0.8,0.7,1.7,1.3,2.4c0.2,0.3,0.5,0.4,0.9,0.5c0.3,0.1,0,1,0.5,0.5l0,0c0.1,0.2,0.3,0,0.4,0.1
		c0.7,0.6,1.2,1.4,2,1.8c0,0,0,0,0.1,0l-4.4,0c0-0.1,0-0.1-0.1-0.2c-0.4-0.3-1-0.2-1.4-0.6c-0.5-0.2-0.8-0.7-1.2-1
		c-0.2-0.3-0.4-0.5-0.5-0.9c-0.2-0.3-0.4-0.8-0.7-1.2c0-0.1,0-0.2-0.1-0.3c-0.5-1.2-0.7-2.6-1.2-3.9c0-0.1-0.1-0.2,0-0.4
		c-0.3-0.9-0.7-2-0.9-3c-0.1-0.3-0.2-0.7-0.4-0.9c-0.4-0.4-0.5-1.3-1.2-1c-2.1,0.6-4.6,0.4-6.7-0.2c-1.2-0.3-2.6-0.8-3.6-1.6
		c-0.4-0.3-0.7-0.5-1-0.9L55.7,34.1L55.7,34.1z M71.4,34.1c0.3,0.7,0.6,1.5,0.8,2.2c0,0.2,0.1,0.3,0.1,0.5c0.4,1.4,0.7,3.2,0.5,4.7
		C72.6,42,72.1,42,71.6,42c-0.5-0.2-1.1-0.4-1.1-1c-0.3-1.8-0.5-3.7-1.2-5.3c-0.1-0.2-0.1-0.5-0.2-0.7c-0.1-0.3-0.2-0.6-0.3-0.8
		L71.4,34.1L71.4,34.1z M91.3,34.1c-0.1,0.4-0.2,0.7-0.4,1c-0.5,0.9-1.1,1.8-1.9,2.6c-0.6,0.8-1.5,1.4-2.2,2.1
		c-1.5,1.3-3.1,2.6-4.1,4.3c-0.2,0.1-0.2,0.4-0.4,0.5c-0.3,0.5-0.3,1.2-0.4,1.8c-0.1,0.1-0.2,0.1-0.4,0.1c-0.5,0.1-1,0.6-1.5,0.4
		c-0.4-0.4-0.6-0.9-0.9-1.4c0-0.4,0.5-0.2,0.7-0.5c-0.3-0.3-0.3-0.8-0.3-1.2c0.5-1.8,2.1-2.9,3.4-4.1c0.7-0.4,1.2-1.1,1.9-1.5
		c1.4-1.3,2.9-2.8,4.1-4.3L91.3,34.1L91.3,34.1z M106.8,34.1c-0.1,0.4-0.2,0.7-0.3,1.1c-0.2,1-0.4,2.1-0.5,3.2
		c-0.2,1.3,0.4,2.9-0.9,3.7c-0.2,0.4-0.7,0.5-1.1,0.4c-0.5-0.2-0.6-0.7-0.7-1.2c0-0.8,0-1.5,0.1-2.3c0.3-1.8,0.9-3.3,1.5-5
		L106.8,34.1L106.8,34.1z M42.8,50.1c-0.6-0.5-1.2-1.2-1.3-1.9c0.5-0.9,1.6-1.2,2.4-1.7c0.5-0.2,0.9-0.3,1.3-0.5
		c-0.5-1.2-0.9-2.6-0.7-3.9c0.2-0.6,0.8-0.4,1.3-0.5c1,0,2,0.3,3,0.5l0.1-0.1c-0.1-1.4,0-3.1,0.7-4.3c0.3-0.3,0.9-0.2,1.3-0.1
		c0.6,0.2,1.2,0.7,1.7,1.2c0.8,0.8,1.5,1.6,2.1,2.5c0.9,1.2,1.5,2.4,2,3.8c0.3,0.5,0.4,1.3,0.4,1.8c-0.3,0.5-0.9,0.7-1.4,0.6
		c-0.5-0.3-0.5-0.9-0.7-1.4c-0.8-1.9-1.7-3.6-3.4-5.1c-0.4-0.1-0.2,0.4-0.4,0.6c0,0.4,0,1,0,1.5c-0.1,0.6,0.2,1.2,0,1.8
		c-0.1,0.1-0.4,0-0.5,0c-1-0.3-1.9-0.7-3-0.6c-0.1,0.1-0.3,0.1-0.3,0.3c0,0.7,0.3,1.3,0.6,2c0.1,0.4,0.5,0.7,0.4,1.2
		c-0.6,0.4-1.3,0.2-2,0.5c-0.4,0.1-0.9,0.3-1.3,0.6c0.4,0.4,0.8,0.8,1.3,1.1L42.8,50.1L42.8,50.1z M60.2,50.1
		c-0.4-0.4-0.8-0.8-1.3-1.1c-0.7-0.2-1.7-0.3-1.9-1.2c0.1-0.2,0.1-0.5,0.2-0.6c0.3-0.2,0.6-0.6,1-0.6c0.4-0.3,1,0,1.5,0.1
		c0.2,0.1,0.4,0.2,0.6,0.3c0.2,0,0.3,0.3,0.5,0.3c1,0.8,2.1,1.8,3,2.9L60.2,50.1L60.2,50.1z M96.5,50.1c0-0.3,0.1-0.5,0.1-0.8
		c0.3-0.7,1.3-0.3,1.7-0.9c0.2,0,0.3,0.1,0.4,0.2c0.1,0.3,0.2,0.7,0.1,1c0,0.2,0,0.3,0,0.5L96.5,50.1L96.5,50.1z M99.5,50.1
		c-0.5-2.1-0.7-4.5,0-6.7c0.4-1.9,1.1-3.8,1.6-5.7c0-0.1,0-0.1,0-0.2c0-0.4,0-0.9,0.5-1.1c0.4-0.1,0.8-0.1,1.1,0.1
		c0.1,0.3,0.2,0.6,0.1,0.9c0,1.7-0.7,3.2-0.9,4.9c-0.1,1.8-0.4,3.6,0.1,5.3c0.2,0.9,0.5,1.7,0.8,2.5L99.5,50.1L99.5,50.1z
		 M106.1,43.1c-0.1,0.5-0.2,1.2-0.6,1.5c-0.6,0-1.1-0.3-1.5-0.7c-0.1-0.1-0.1-0.2-0.1-0.4c0.1-0.2,0.2-0.4,0.4-0.5
		C104.9,43,105.6,42.7,106.1,43.1L106.1,43.1z M78.6,42.6c0.3,0.3,0.6,0.9,0.5,1.4c-0.2,0.4-0.5,0.9-1.1,0.9c-0.5,0-0.9,0-1.3-0.3
		c-0.3-0.6-0.9-1.1-1.6-1c-0.3,0.4-0.8,0.4-1.2,0.3c-0.5-0.2-1-0.6-1.1-1.1c-0.1-0.7,0.7-1.1,1.2-1.5c1.2-0.4,2.7-0.3,3.7,0.5
		C78.1,42,78.4,42.3,78.6,42.6L78.6,42.6z"/>
	<path style="fill-rule:evenodd;clip-rule:evenodd;" d="M58.8,26.1c0.1,0.5,0.3,1,0.4,1.4c0,0.1-0.1,0.3-0.2,0.4c-1,0.2-2-0.1-3,0.2
		c-0.1-0.1-0.3,0.1-0.3,0.2c-0.1,0.3,0.2,0.6,0.3,0.9c0.4,0.7,1.1,1.1,1.5,1.8c-0.1,0.4-0.6,0.4-0.9,0.5c-1.1,0.2-2.3,0.5-3,1.5
		c0,0.1-0.1,0.3,0,0.4c0.4,0.2,0.9,0.4,1.3,0.5c0.3,0.1,0.6,0.2,0.9,0.2l-5.6,0c-0.2-0.3-0.3-0.5-0.3-0.9c0.4-1.6,2-2.3,3.3-2.9
		c0.3,0,0.6-0.2,0.8-0.3c-0.1-0.3-0.5-0.5-0.5-0.8c-0.4-0.5-0.6-0.9-0.8-1.5c-0.1-0.3-0.1-0.7,0-1.1c0.2-0.3,0.6-0.5,0.9-0.6
		L58.8,26.1L58.8,26.1z M68.2,26.1c0,0.7,0,1.5-0.1,2.2c-0.1,0,0,0.1,0,0.2c-0.1,0.2-0.2,0.5-0.5,0.5c-0.4,0.1-0.8,0-1.2-0.1
		c-0.1-0.1-0.3-0.2-0.3-0.4c0.2-0.2,0.1-0.5,0.1-0.7c0-0.6-0.1-1.3-0.3-1.9L68.2,26.1L68.2,26.1z M85.7,26.1
		c1.6,1.4,3.9,1.9,5.3,3.7c0.1,0.1,0.1,0.3,0.2,0.4c0.4,0.6,0.4,1.3,0.5,1.9c-0.1,0.7-0.2,1.2-0.4,1.9c0,0,0,0,0,0.1l-2.4,0
		c0.1-0.1,0.1-0.2,0.2-0.2c0.5-0.9,1-2.3,0.3-3.1c-0.9-1-2.2-1.1-3.3-1.7c-0.4-0.1-0.6-0.5-1-0.6c-0.8-0.6-1.6-1.4-2.1-2.3
		L85.7,26.1L85.7,26.1z M109.2,26.1C109.2,26.2,109.2,26.2,109.2,26.1c0,0.2-0.2,0.3-0.3,0.4c-0.6,0-1.1-0.1-1.6-0.3
		c0,0-0.1,0-0.1-0.1L109.2,26.1L109.2,26.1z M124.9,26.1c-0.2,0.2-0.4,0.4-0.6,0.6c-1.3,1-3.1,1.1-4.5,0.3c-0.3-0.2-0.6-0.5-0.8-0.9
		L124.9,26.1L124.9,26.1z M68.8,34.1c-0.5-1.2-1.2-2.4-1.8-3.5c-0.1-0.4,0.3-0.7,0.6-1c0.3-0.1,0.8-0.1,1.1,0c0.6,0.4,1,1.1,1.4,1.8
		c0.5,0.9,1,1.8,1.4,2.7L68.8,34.1L68.8,34.1z M105,34.1c0-0.1,0.1-0.2,0.1-0.3c0.1-0.3,0.3-0.6,0.3-1c0.5-1.6,1-3.3,1-4.9
		c-0.1-0.4,0-0.7-0.1-1.1c0.1-0.1,0.1-0.4,0.3-0.4c0.3,0,0.6,0.2,0.8,0.3c0.4,0.1,0.7,0.3,0.8,0.7c0.2,0.7,0.1,1.3,0.1,2
		c-0.1,0.5-0.2,1-0.4,1.5c0,0.2-0.1,0.4-0.1,0.6c-0.4,0.8-0.6,1.8-0.9,2.7L105,34.1L105,34.1z"/>
	<path style="fill-rule:evenodd;clip-rule:evenodd;" d="M64.5,18.1c0.1,0.1,0.1,0.1,0.2,0.2l0.7,0.8c0.6,0.9,1.2,1.7,1.5,2.7
		c0.7,1.3,1.1,2.9,1.2,4.4h-2.4c-0.4-1.5-1-2.8-1.7-4.2c-0.2-0.4-0.5-0.6-0.8-0.9c-0.7,0.8-0.6,1.9-0.9,2.9c-0.1,0.5-0.1,1-0.2,1.5
		c-0.1,0.1-0.2,0.2-0.4,0.2c-0.7-0.2-1.3-0.9-2-1.1c-0.4,0-0.7-0.5-1.1-0.2c-0.1,0.6-0.1,1.2,0.1,1.7l-5.3,0
		c0.6-0.2,1.2-0.3,1.7-0.4c0.4,0,0.8,0,1.1-0.1c-0.3-1-0.5-2.1-0.5-3.3l0.3-0.6c1-0.7,2.2,0,3.2,0.4c0.4,0.1,0.7,0.4,1.1,0.3
		c0.1-0.1,0-0.3,0.1-0.5c-0.1-0.1,0.1-0.2,0-0.4c0.3-0.9,0.6-1.9,1.1-2.8c0.1-0.2,0.3-0.4,0.4-0.6H64.5L64.5,18.1z M84.3,18.1
		c-0.2,0.1-0.4,0.1-0.6,0.2c-0.8,0.1-1.8,0-2.7-0.2L84.3,18.1L84.3,18.1z M87.9,18.1c0,0.3,0.2,0.6,0.4,0.9c0.4,1.1,1.3,2,1.7,3
		c0.1,0.3,0.4,0.5,0.5,0.9c0.3,0.4,0.5,0.9,0.7,1.4c0.2,0.3-0.1,0.7-0.2,0.9c-0.9,0.6-1.9-0.2-2.7-0.6c-1.4-1-2.8-2.2-4.4-3.1
		c-0.2,0-0.1,0.2-0.3,0.3c0.1,0.6,0.3,1.3,0.4,2c0.3,0.7,0.7,1.4,1.3,2.1c0.1,0.1,0.2,0.2,0.3,0.3l-2.8,0c-0.1-0.1-0.1-0.2-0.2-0.3
		c-0.5-0.7-0.6-1.5-0.8-2.3c-0.4-1.1-0.3-2.5,0.1-3.5c0.1-0.4,0.4-0.7,0.7-0.9l0.7-0.1c0.6,0.3,1.2,0.7,1.8,1
		c0.3,0.3,0.7,0.3,0.9,0.7c0.4,0.2,0.9,0.5,1.2,0.8c-0.5-1.1-1.3-2.1-1.8-3.1c0-0.1,0-0.1,0-0.2H87.9L87.9,18.1z M92.6,18.1
		c-0.2,0-0.3,0.1-0.5,0.1c-0.2,0-0.5,0.1-0.7,0l0,0c-0.3,0-0.6,0-0.9-0.1L92.6,18.1L92.6,18.1z M98.3,18.1c0,0,0,0.1-0.1,0.1
		c-0.3,0.1-0.6,0-0.9-0.1L98.3,18.1L98.3,18.1z M101.7,18.1c0.2,0.3,0.4,0.5,0.7,0.7l0,0.1c1.5,1.9,3.4,3.4,5.4,4.8
		c0.5,0.2,1,0.4,1.1,0.9c0.1,0.5,0.3,1,0.4,1.5l-2.1,0c-1-0.5-2-1.1-2.8-1.8c-1.2-0.9-2.3-2.3-3.2-3.5c-0.7-0.9-1.3-1.8-1.9-2.7
		L101.7,18.1L101.7,18.1z M103.3,18.1c-0.2,0.1-0.5,0.1-0.8,0L103.3,18.1L103.3,18.1z M113.4,18.1c-0.2,0.5-0.5,1-0.7,1.4l-0.3,0.5
		c0.3,0,0.7,0.1,1,0.2c1.1,0.3,2.2,0.6,3.2,1.1c0.3,0.1,0.6,0.3,0.9,0.5l1.6,0.8c0.3-0.9,1.1-1.6,2-1.9c1.6-0.3,3.3,0.5,4.1,1.8
		c0.3,0.7,0.3,1.5,0.2,2.4c-0.1,0.4-0.3,0.8-0.5,1.2l-6,0c-0.2-0.4-0.3-0.8-0.3-1.3c-2.3-0.3-4.5,0.3-6.6,1.2
		c-0.4-0.1-0.8-0.1-1.2-0.3c-0.4-0.1-0.7-0.1-1.1-0.3c0-0.3-0.1-0.8,0.1-1.1c1.2-1.1,3-1.2,4.6-1.4c0.6,0,1.1,0,1.7,0
		c-1.7-0.7-3.6-1-5.5-1c-0.4,0.2-0.5-0.2-0.8-0.1c-0.5-0.2-0.4-0.7-0.8-0.9c-0.3-0.5,0.3-0.8,0.5-1.3c0.3-0.5,0.6-1,0.9-1.4
		L113.4,18.1L113.4,18.1z M122.6,23.4c0.2,0,0.3,0.3,0.3,0.4c0.1,0.4,0,0.8-0.3,1.1c-0.3,0.3-0.7,0.3-1.1,0.2
		c-0.5-0.1-0.5-0.9-1.1-0.7c-0.1-0.1-0.1-0.3-0.2-0.5c0.3,0,0.7,0.6,1,0.1c0-0.2,0.1-0.5,0.2-0.6C121.7,23.2,122.3,23.3,122.6,23.4
		L122.6,23.4z M109.8,22.1c0.1,0.3,0.1,0.5,0.1,0.8c-0.5,0.2,0.1,0.7-0.4,0.8c-0.3,0-0.7,0.1-1-0.1c-0.4-0.1-0.4-0.6-0.6-0.9
		c0-0.3,0.1-0.6,0.2-0.8C108.6,21.7,109.4,21.6,109.8,22.1L109.8,22.1z M107.6,20.5c0.1,0.3,0.2,0.5,0,0.8c-0.2,0.1-0.1,0.5-0.1,0.7
		c-0.1,0.3-0.4,0.3-0.7,0.4c-0.5,0-0.9-0.3-1.1-0.8c-0.2-0.2-0.1-0.5-0.1-0.7c0.1-0.5,0.7-0.7,1.2-0.7
		C107.1,20.3,107.5,20.3,107.6,20.5L107.6,20.5z M98.4,20.6c0.4,0.6,0.6,1.3,0.5,2c-0.1,0.1-0.2,0.4-0.5,0.4c-0.2,0-0.4-0.3-0.6-0.1
		c0.1,0.2,0,0.6-0.2,0.8c-0.6,0.4-1.3,0.4-2,0.1c-0.6-0.4-1.2-1-1.2-1.9c0-0.9,0.9-1.6,1.6-1.9C96.9,19.8,97.8,20,98.4,20.6
		L98.4,20.6z M105.4,18.6c0,0.2,0.2,0.2,0.2,0.4c0.2,0.1,0.1,0.3,0.1,0.4l-0.3,0.3c0,0.2-0.1,0.5-0.3,0.6c-0.3,0.2-0.6,0.1-0.9,0
		c-0.4-0.3-0.8-0.6-0.8-1.1c0.1,0,0-0.1,0.1-0.2c0.2-0.4,0.6-0.6,0.9-0.7C104.8,18.2,105.2,18.3,105.4,18.6L105.4,18.6z"/>
	<path style="fill-rule:evenodd;clip-rule:evenodd;" d="M62.1,18.1c0.2-0.2,0.4-0.5,0.7-0.6c0.7-0.4,1.2,0.2,1.8,0.6L62.1,18.1
		L62.1,18.1z M81.1,18.1c-0.4-0.1-0.7-0.3-1.1-0.4c-0.1-0.1-0.2-0.2-0.4-0.2c-1.8-1.3-2.4-3.1-3.1-5c-0.4-0.9-1.4-1.2-2.2-1.7
		c-0.2-0.2-0.1-0.6,0-0.8c1.2-1.1,3-1.3,4.5-0.7c1.1,0.5,2.1,1.7,2.6,2.8c0.6,1.2,1.1,2.6,1.8,3.8c0,0.1,0.1,0.1,0.1,0.2
		c0.4,0.5,0.9,0.9,1.4,1.4c0.1,0.1,0,0.3,0,0.4c-0.1,0.1-0.2,0.2-0.4,0.3L81.1,18.1L81.1,18.1z M85.7,18.1c0-0.2,0.2-0.3,0-0.5
		c-0.3-0.3-0.6-0.6-0.5-1.1c0.1-0.6,0.4-1.2,1-1.4c1.5-0.4,2.5,0.5,3.9,0.7c0.4,0.1,0.8,0,1.2,0.2c1.2,0.1,2.2-0.3,3.4-0.3
		c0.1,0,0.2,0,0.3,0c1.1,0,2.1,0.3,3,0.7c0.3,0.4,0.1,0.8,0,1.2c0,0.2,0.2,0.4,0.2,0.6l-1,0c0,0-0.1,0-0.1,0c-1.5-0.7-3-0.2-4.6,0
		l-2.2,0c-0.6-0.1-1.2-0.3-1.8-0.4c-0.2-0.1-0.5-0.2-0.7,0.1c0,0.1,0,0.2,0,0.3L85.7,18.1L85.7,18.1z M99.2,18.1
		c-0.3-0.6-0.6-1.1-0.9-1.7c-0.2-0.6,0.6-0.7,0.8-1.2c0.2-0.3,0.7-0.1,0.8,0.2c0,0.1,0.1,0.2,0.2,0.4c0.5,0.8,1,1.6,1.5,2.3
		L99.2,18.1L99.2,18.1z M102.6,18.1c-0.1,0-0.3-0.1-0.4-0.2c-0.3-0.3-0.5-0.7-0.3-1.2c0.1-0.5,0.6-0.6,1-0.7c0.3,0,0.5,0.1,0.7,0.2
		c0.4,0.4,0,0.9,0.1,1.3c0,0.2-0.1,0.4-0.3,0.5c-0.1,0-0.1,0-0.2,0.1L102.6,18.1L102.6,18.1z M110.6,18.1c0.5-0.9,0.9-1.8,1.2-2.7
		c-0.5-0.1-1-0.1-1.4,0c-1.2,0.1-2.4,0.4-3.6,0.6c-0.5,0-0.5-0.6-0.9-0.7c-0.2-0.2-0.7,0.1-0.8-0.3c-0.1-1.7,0-3.3-0.6-4.8
		c-0.1-0.6-0.3-1.1-0.6-1.6l-0.1-0.1c0,0.7,0.1,1.5,0,2.1c0,0.2,0,0.5,0,0.7c-0.1,0.4,0,0.8-0.2,1.2c-0.1,1.1-0.2,2.2-0.9,3.1
		c-0.5,0.2-1.1,0.2-1.6,0.2c-0.3-0.1-0.5-0.5-0.8-0.7c0-0.1-0.2-0.3-0.1-0.5c0.7-1.4,1.1-2.9,1.4-4.4l0,0c0.2-1.2,0.4-2.5,0.3-3.7
		c-1.1-0.4-2-1.4-2-2.7c0-1.1,0.4-2.2,1.3-2.9c1-1.1,2.6-1,3.9-0.6c0.4,0.3,0.8,0.6,1.2,0.9c0.4,0.8,0.9,1.8,0.5,2.7
		c-0.2,0.7-0.6,1.4-1.1,2c-0.4,0.1-0.5,0.5-0.8,0.5c0.1,0.2,0.1,0.4,0.3,0.5c0.2,0.7,0.6,1.2,0.7,2c0.2,0.6,0.4,1.3,0.5,1.9
		c-0.1,0.2,0,0.4,0.1,0.6c0.1,0.5,0,1.3,0.2,1.9c1-0.2,2.2-0.4,3.2-0.4c0.2,0,0.5-0.1,0.7,0c0.8,0,1.6,0.1,2.4,0.2
		c0-0.5,0-1.1,0.2-1.6c0.3-0.6,0.6-1.2,1.2-1.6c1.1-0.7,2.4-0.7,3.5-0.1c0.7,0.5,1.5,1,1.8,1.7c0.4,0.8,0.4,1.6,0.3,2.4
		c-0.4,0.9-0.9,2-2,2.3c-1.1,0.4-2.5,0.4-3.3-0.4c-0.1-0.2-0.3-0.2-0.4-0.4c-0.1,0.5-0.2,1-0.5,1.5c-0.2,0.4-0.4,0.9-0.6,1.3
		L110.6,18.1L110.6,18.1z M117.3,13.2c0.1,0.5-0.1,0.9-0.5,1.1c-0.8,0.3-1.3-0.7-2-0.4c-0.2-0.1-0.4-0.4-0.6-0.5c0,0,0-0.1,0.1-0.1
		c0.3,0,0.6,0.3,0.8,0.1c0-0.4,0.1-0.9,0.5-1.1c0.3,0,0.7-0.3,0.9,0.1C117,12.5,117.1,12.9,117.3,13.2L117.3,13.2z M79.9,12.8
		c0.4,0.8,0.6,1.7,1,2.4c0.1,0.2,0.2,0.5,0.4,0.7c0.1,0.2,0.3,0.5,0.5,0.7c-1.1-0.2-2-1.4-2.5-2.4c-0.5-1-0.6-2.2-1.5-3
		c0-0.1,0.2-0.2,0.3-0.2C78.8,11.3,79.4,12,79.9,12.8L79.9,12.8z M105,2.9c0.2,0.3,0.2,0.8,0,1.1c-0.3,0.3-0.7,0.4-1,0.4
		c-0.3,0.1-0.3,0.4-0.6,0.5c-0.1-0.4-0.7-0.4-1-0.7c-0.2-0.6,0.1-1.4,0.6-1.8C103.7,2.1,104.6,2.3,105,2.9L105,2.9z"/>
	<polygon points="4.5,152.9 6.3,152.9 6.3,141.8 10.2,141.8 10.2,140.2 0.5,140.2 0.5,141.8 4.5,141.8 4.5,152.9 	"/>
	<path d="M18.8,143.6h-1.7v4.3c0,2.3-0.9,3.8-2.8,3.8c-1.5-0.1-2-1.1-2-3.3v-4.8h-1.7v5.5c0,2.5,1.1,4,3.5,4c1.3,0,2.5-0.6,3-1.7h0
		v1.5h1.7V143.6L18.8,143.6z"/>
	<path d="M21.8,152.9h1.7v-4.2c0-2.3,1-3.8,2.5-3.8c0.3,0,0.6,0,0.9,0.2v-1.5c-0.4-0.1-0.6-0.1-1.1-0.1c-1,0-2,0.7-2.4,1.7h0v-1.4
		h-1.6V152.9L21.8,152.9z"/>
	<path d="M28.9,152.9h1.7v-4.3c0-2.3,0.9-3.8,2.8-3.8c1.5,0.1,2,1.1,2,3.3v4.8h1.7v-5.5c0-2.5-1.1-4-3.5-4c-1.3,0-2.5,0.6-3,1.7h0
		v-1.5h-1.7V152.9L28.9,152.9z"/>
	<path style="fill-rule:evenodd;clip-rule:evenodd;" d="M48.3,143.6h-1.6v1.4h0c-0.5-1-1.4-1.6-3.1-1.6c-2.8,0-4.1,2.5-4.1,4.9
		c0,2.4,1.3,4.6,4,4.6c1.2,0,2.4-0.5,3.1-1.4h0v0.9c0,2-1.1,3.2-2.9,3.2c-1.3,0-2-0.2-3.3-0.8l-0.2,1.6c1.5,0.5,2.3,0.6,3.3,0.6
		c3.3,0,4.8-1.6,4.8-4.4V143.6L48.3,143.6z M43.9,151.5c-1.6,0-2.6-1.5-2.6-3.3c0-1.6,0.9-3.5,2.6-3.5c1.8,0,2.7,1.7,2.7,3.6
		C46.6,150.1,45.5,151.5,43.9,151.5L43.9,151.5z"/>
	<path style="fill-rule:evenodd;clip-rule:evenodd;" d="M58.5,150.8c-0.4,0.3-1.7,0.9-2.9,0.9c-1.6,0-3.1-1.3-3.1-3.1h6.6
		c0-3-1-5.2-4.1-5.2c-2.6,0-4.3,1.9-4.3,4.7c0,3,1.5,5,4.8,5c1.5,0,2.3-0.4,2.9-0.6V150.8L58.5,150.8z M52.5,147.4
		c0.1-1.2,0.8-2.6,2.5-2.6c1.5,0,2.3,1.2,2.3,2.6H52.5L52.5,147.4z"/>
	<path d="M61.5,152.9h1.7v-4.7c0-1.7,0.7-3.4,2.4-3.4c1.4,0,1.7,1.4,1.7,2.6v5.5H69v-4.7c0-1.7,0.7-3.4,2.4-3.4
		c1.4,0,1.7,1.4,1.7,2.6v5.5h1.7V147c0-2-0.9-3.5-3.2-3.5c-0.8,0-2.2,0.5-2.9,1.8c-0.5-1.3-1.6-1.8-2.6-1.8c-1.4,0-2.3,0.5-2.9,1.6
		h0v-1.3h-1.6V152.9L61.5,152.9z"/>
	<path style="fill-rule:evenodd;clip-rule:evenodd;" d="M85,150.8c-0.4,0.3-1.7,0.9-2.9,0.9c-1.6,0-3.1-1.3-3.1-3.1h6.6
		c0-3-1-5.2-4.1-5.2c-2.6,0-4.3,1.9-4.3,4.7c0,3,1.5,5,4.8,5c1.5,0,2.3-0.4,2.9-0.6V150.8L85,150.8z M79,147.4
		c0.1-1.2,0.8-2.6,2.5-2.6c1.5,0,2.3,1.2,2.3,2.6H79L79,147.4z"/>
	<path style="fill-rule:evenodd;clip-rule:evenodd;" d="M88.3,152.9H90v-9.3h-1.7V152.9L88.3,152.9z M90.1,139.6h-1.9v1.9h1.9V139.6
		L90.1,139.6z"/>
	<path d="M93.1,152.9h1.7v-4.3c0-2.3,0.9-3.8,2.8-3.8c1.5,0.1,2,1.1,2,3.3v4.8h1.7v-5.5c0-2.5-1.1-4-3.5-4c-1.3,0-2.5,0.6-3,1.7h0
		v-1.5h-1.7V152.9L93.1,152.9z"/>
	<path style="fill-rule:evenodd;clip-rule:evenodd;" d="M110.9,152.9h1.6v-13.6h-1.7v5.6h0c-0.5-0.9-1.5-1.5-3.1-1.5
		c-2.7,0-4,2.2-4,4.7c0,2.5,1.2,5,4,5c1.7,0,2.7-0.8,3.2-1.5h0V152.9L110.9,152.9z M105.5,148.2c0-1.7,0.7-3.4,2.5-3.4
		s2.7,1.8,2.7,3.5c0,1.5-0.8,3.5-2.7,3.5C106.3,151.8,105.5,149.7,105.5,148.2L105.5,148.2z"/>
	<path style="fill-rule:evenodd;clip-rule:evenodd;" d="M122.6,150.8c-0.4,0.3-1.7,0.9-2.9,0.9c-1.6,0-3.1-1.3-3.1-3.1h6.6
		c0-3-1-5.2-4.1-5.2c-2.6,0-4.3,1.9-4.3,4.7c0,3,1.5,5,4.8,5c1.5,0,2.3-0.4,2.9-0.6V150.8L122.6,150.8z M116.7,147.4
		c0.1-1.2,0.8-2.6,2.5-2.6c1.5,0,2.3,1.2,2.3,2.6H116.7L116.7,147.4z"/>
	<path style="fill-rule:evenodd;clip-rule:evenodd;" d="M131.4,152.9h3.4c2.6,0,4.8-0.7,4.8-3.4c0-1.8-1.2-2.9-2.9-3.1v0
		c1.6-0.4,2.6-1.3,2.6-3c0-2.3-1.8-3.2-4.5-3.2h-3.4V152.9L131.4,152.9z M133.2,147.1h1.2c1.6,0,3.3,0.3,3.3,2.2
		c0,1.7-1.5,2.1-3.1,2.1h-1.4V147.1L133.2,147.1z M133.2,141.7h1.9c1.1,0,2.3,0.4,2.3,1.9c0,1.9-1.5,2-3.3,2h-1V141.7L133.2,141.7z"
		/>
	<path style="fill-rule:evenodd;clip-rule:evenodd;" d="M142.8,152.9h1.7v-9.3h-1.7V152.9L142.8,152.9z M144.6,139.6h-1.9v1.9h1.9
		V139.6L144.6,139.6z"/>
	<path style="fill-rule:evenodd;clip-rule:evenodd;" d="M147.6,152.9h1.6v-1.3h0c0.5,0.7,1.5,1.5,3.2,1.5c2.8,0,4-2.5,4-5
		c0-2.5-1.3-4.7-4-4.7c-1.6,0-2.5,0.6-3.1,1.5h0v-5.6h-1.7V152.9L147.6,152.9z M154.6,148.2c0,1.5-0.7,3.5-2.6,3.5
		c-1.9,0-2.7-1.9-2.7-3.5c0-1.7,0.9-3.5,2.7-3.5C153.9,144.8,154.7,146.6,154.6,148.2L154.6,148.2z"/>
	<path style="fill-rule:evenodd;clip-rule:evenodd;" d="M165.9,150.8c-0.4,0.3-1.7,0.9-2.9,0.9c-1.6,0-3.1-1.3-3.1-3.1h6.6
		c0-3-1-5.2-4.1-5.2c-2.6,0-4.3,1.9-4.3,4.7c0,3,1.5,5,4.8,5c1.5,0,2.3-0.4,2.9-0.6V150.8L165.9,150.8z M160,147.4
		c0.1-1.2,0.8-2.6,2.5-2.6c1.5,0,2.3,1.2,2.3,2.6H160L160,147.4z"/>
	<path d="M169,152.9h1.7v-4.2c0-2.3,1-3.8,2.5-3.8c0.3,0,0.6,0,0.9,0.2v-1.5c-0.4-0.1-0.6-0.1-1.1-0.1c-1,0-2,0.7-2.4,1.7h0v-1.4
		H169V152.9L169,152.9z"/>
	<path style="fill-rule:evenodd;clip-rule:evenodd;" d="M176.7,145.8c0.7-0.6,1.7-0.9,2.7-0.9c1.7,0,2.3,0.8,2.3,2.4
		c-0.7,0-1.1,0-1.8,0c-1.8,0-4.3,0.7-4.3,3.1c0,2,1.4,2.9,3.4,2.9c1.6,0,2.5-0.9,2.9-1.4h0v1.2h1.6c0-0.3-0.1-0.8-0.1-1.8v-3.8
		c0-2.5-1.1-3.8-3.7-3.8c-1.2,0-2.2,0.4-3.1,0.9L176.7,145.8L176.7,145.8z M181.7,149.3c0,1.4-0.9,2.4-2.6,2.4
		c-0.8,0-1.7-0.5-1.7-1.5c0-1.6,2.3-1.8,3.2-1.8c0.4,0,0.7,0,1.1,0V149.3L181.7,149.3z"/>
	<path d="M192.4,143.8c-0.5-0.2-1.4-0.4-2.1-0.4c-2.8,0-4.7,2-4.7,4.9c0,2.7,1.9,4.9,4.7,4.9c0.6,0,1.4-0.1,2.1-0.4l-0.1-1.5
		c-0.5,0.3-1.3,0.5-1.8,0.5c-2.2,0-3.1-1.8-3.1-3.5c0-1.8,1.1-3.5,3-3.5c0.5,0,1.2,0.1,1.9,0.4L192.4,143.8L192.4,143.8z"/>
	<path d="M194.5,152.9h1.7v-4.3c0-2.3,0.9-3.8,2.8-3.8c1.5,0.1,2,1.1,2,3.3v4.8h1.7v-5.5c0-2.5-1.1-4-3.5-4c-1.3,0-2.4,0.6-3,1.5h0
		v-5.7h-1.7V152.9L194.5,152.9z"/>
	<polygon points="214.7,152.9 216.6,152.9 216.6,140.2 214.9,140.2 211.8,142.8 212.8,144 214.7,142.3 214.7,152.9 	"/>
	<path style="fill-rule:evenodd;clip-rule:evenodd;" d="M224,153.1c2.4,0,4.4-1.1,4.4-3.6c0-1.7-1.1-2.8-2.7-3.4
		c1.7-0.9,2.3-1.9,2.3-3.3c0-1.4-1.4-2.9-3.9-2.9c-2.6,0-4.1,1.4-4.1,3c0,1.2,0.5,2.5,2.4,3.2v0c-1.5,0.5-2.7,1.7-2.7,3.3
		C219.7,151.9,221.9,153.1,224,153.1L224,153.1z M226.5,149.6c0,1.3-1.1,2-2.3,2c-1.3,0-2.6-0.8-2.6-2.2c0-1.5,1.1-1.8,2.1-2.6
		C225.1,147.6,226.6,147.9,226.5,149.6L226.5,149.6z M221.8,143.3c0-1.2,1.3-1.8,2.1-1.8c0.9,0,2.1,0.4,2.1,1.6
		c0,0.9-0.2,1.4-1.7,2.5C222.7,144.8,221.8,144.2,221.8,143.3L221.8,143.3z"/>
	<path style="fill-rule:evenodd;clip-rule:evenodd;" d="M235.9,148.5h-4l4-6.8h0V148.5L235.9,148.5z M235.9,152.9h1.8V150h1.6v-1.5
		h-1.6v-8.3h-2.6l-5.1,8.3v1.5h5.9V152.9L235.9,152.9z"/>
	<polygon points="248.7,140.2 240.7,140.2 240.7,141.7 246.9,141.7 242,152.9 244,152.9 248.7,141.7 248.7,140.2 	"/>
	<path style="fill-rule:evenodd;clip-rule:evenodd;" d="M262.6,150.8c-0.4,0.3-1.7,0.9-2.9,0.9c-1.6,0-3.1-1.3-3.1-3.1h6.6
		c0-3-1-5.2-4.1-5.2c-2.6,0-4.3,1.9-4.3,4.7c0,3,1.5,5,4.8,5c1.5,0,2.3-0.4,2.9-0.6V150.8L262.6,150.8z M256.7,147.4
		c0.1-1.2,0.8-2.6,2.5-2.6c1.5,0,2.3,1.2,2.3,2.6H256.7L256.7,147.4z"/>
	<polygon points="265.8,152.9 267.8,152.9 267.8,150.9 265.8,150.9 265.8,152.9 	"/>
	<polygon points="281.4,140.2 279.5,140.2 275.5,151.3 275.4,151.3 271.5,140.2 269.5,140.2 274.3,152.9 276.5,152.9 281.4,140.2 	
		"/>
	<polygon points="281.4,152.9 283.5,152.9 283.5,150.9 281.4,150.9 281.4,152.9 	"/>
	<polygon style="fill:#004F9F;" points="0,113 0,127.8 14.8,127.8 14.8,113 0,113 	"/>
	<polygon style="fill:#004F9F;" points="20,113 20,127.8 34.8,127.8 34.8,113 20,113 	"/>
	<polygon style="fill:#004F9F;" points="40,113 40,127.8 54.8,127.8 54.8,113 40,113 	"/>
	<polygon style="fill:#004F9F;" points="154.8,127.7 173.4,127.7 173.4,49.6 200,49.6 200,35 128.2,35 128.2,49.6 154.8,49.6 
		154.8,127.7 	"/>
	<path style="fill:#004F9F;" d="M280,37.2c-8-2.4-16.5-3.9-27.2-3.9c-31.5,0-50.9,17.8-50.9,49.6c0,31.4,20.9,46.4,50.9,46.4
		c10,0,20.2-2.1,30-4.8v-50h-37.5v14.6H265v24.2c-3.2,0.8-7.2,1.3-12.2,1.3c-19.8,0-31.5-14.2-31.5-33.1c0-19,12-33.6,33.6-33.6
		c7.4,0,16.7,1.6,23.9,4.9L280,37.2L280,37.2z"/>
</g>
</svg>
